<?xml version="1.0" encoding="UTF-8" standalone="no"?>
<svg
   xmlns:dc="http://purl.org/dc/elements/1.1/"
   xmlns:cc="http://creativecommons.org/ns#"
   xmlns:rdf="http://www.w3.org/1999/02/22-rdf-syntax-ns#"
   xmlns:svg="http://www.w3.org/2000/svg"
   xmlns="http://www.w3.org/2000/svg"
   xmlns:sodipodi="http://sodipodi.sourceforge.net/DTD/sodipodi-0.dtd"
   xmlns:inkscape="http://www.inkscape.org/namespaces/inkscape"
   width="269px"
   height="306px"
   viewBox="0 0 269 306"
   version="1.1"
   id="svg347"
   sodipodi:docname="dochtor.svg"
   inkscape:version="0.92.4 (5da689c313, 2019-01-14)">
  <metadata
     id="metadata351">
    <rdf:RDF>
      <cc:Work
         rdf:about="">
        <dc:format>image/svg+xml</dc:format>
        <dc:type
           rdf:resource="http://purl.org/dc/dcmitype/StillImage" />
      </cc:Work>
    </rdf:RDF>
  </metadata>
  <sodipodi:namedview
     pagecolor="#ffffff"
     bordercolor="#666666"
     borderopacity="1"
     objecttolerance="10"
     gridtolerance="10"
     guidetolerance="10"
     inkscape:pageopacity="0"
     inkscape:pageshadow="2"
     inkscape:window-width="721"
     inkscape:window-height="480"
     id="namedview349"
     showgrid="false"
     inkscape:zoom="0.77124183"
     inkscape:cx="134.5"
     inkscape:cy="153"
     inkscape:window-x="0"
     inkscape:window-y="0"
     inkscape:window-maximized="0"
     inkscape:current-layer="svg347" />
  <!-- Generator: sketchtool 60.1 (101010) - https://sketch.com -->
  <title
     id="title2">07EA551E-58AE-4557-A45A-D058F5A75F79</title>
  <desc
     id="desc4">Created with sketchtool.</desc>
  <defs
     id="defs16">
    <linearGradient
       x1="8.8492126%"
       y1="62.186794%"
       x2="66.0523622%"
       y2="42.1998791%"
       id="linearGradient-1">
      <stop
         stop-color="#D3D3D3"
         offset="0%"
         id="stop6" />
      <stop
         stop-color="#FFFFFF"
         offset="100%"
         id="stop8" />
    </linearGradient>
    <linearGradient
       x1="8.91771654%"
       y1="62.0547647%"
       x2="66.1204724%"
       y2="42.2019902%"
       id="linearGradient-2">
      <stop
         stop-color="#D3D3D3"
         offset="0%"
         id="stop11" />
      <stop
         stop-color="#FFFFFF"
         offset="100%"
         id="stop13" />
    </linearGradient>
  </defs>
  <g
     id="Medisis_system"
     stroke="none"
     stroke-width="1"
     fill="none"
     fill-rule="evenodd">
    <g
       id="Medisis_login_1024"
       transform="translate(-377.000000, -41.000000)"
       fill-rule="nonzero">
      <g
         id="doctor_login"
         transform="translate(227.000000, 40.000000)">
        <g
           id="login_icon"
           transform="translate(149.625000, 0.000000)">
          <g
             id="icon"
             transform="translate(0.369444, 0.633333)">
            <path
               d="M58.045,61.0216667 C58.045,61.0216667 32.2472222,73.4244444 26.5419444,80.6180556 C11.6586111,99.7183333 27.5341667,138.415 37.9525,137.422778 C44.4019444,136.926667 61.7658333,126.260278 72.1841667,120.058889 C84.5869444,112.617222 75.1608333,75.6569444 70.9438889,65.9827778 C67.7191667,58.7891667 58.045,61.0216667 58.045,61.0216667 Z"
               id="Path"
               fill="#424143" />
            <g
               id="Group"
               transform="translate(37.208333, 0.000000)">
              <path
                 d="M52.3397222,46.6344444 C49.6111111,41.9213889 36.2161111,38.2005556 36.2161111,38.2005556 C36.4641667,38.6966667 45.3941667,99.4702778 45.3941667,99.4702778 L66.7269444,114.353611 C66.7269444,114.353611 76.6491667,114.601667 77.6413889,111.625 L61.0216667,91.0363889 C61.0216667,91.2844444 57.5488889,56.3086111 52.3397222,46.6344444 Z"
                 id="path19"
                 fill="#FFFFFF" />
              <polygon
                 id="polygon21"
                 fill="url(#linearGradient-1)"
                 points="50.1072222 242.102222 60.5255556 261.450556 113.113333 239.373611 95.0052778 224.490278" />
              <polygon
                 id="polygon23"
                 fill="url(#linearGradient-2)"
                 points="19.5963889 253.016667 30.0147222 272.365 82.6025 250.288056 64.7425 235.652778" />
              <g
                 id="g67">
                <g
                   id="g63">
                  <path
                     d="M60.7736111,253.512778 L50.3552778,243.094444 L38.9447222,243.094444 L37.7044444,251.032222 C37.7044444,252.768611 38.6966667,254.256944 40.185,255.249167 L44.8980556,256.7375 C47.8747222,257.729722 50.6033333,258.97 53.3319444,260.954444 C56.3086111,262.938889 61.5177778,263.931111 64.2463889,263.186944 C66.7269444,262.442778 67.9672222,261.946667 66.975,259.218056 C66.4788889,257.233611 64.4944444,255.497222 60.7736111,253.512778 Z"
                     fill="#424143"
                     id="path25" />
                  <path
                     d="M27.2861111,261.946667 L19.1002778,251.032222 L8.18583333,251.032222 L7.44166667,258.721944 C7.44166667,260.458333 8.43388889,261.946667 9.92222222,262.938889 L20.8366667,272.116944 C23.0691667,274.101389 26.0458333,275.093611 29.0225,274.5975 C31.255,274.349444 33.7355556,273.109167 34.4797222,270.380556 L34.4797222,269.884444 C33.7355556,266.659722 29.2705556,263.931111 27.2861111,261.946667 Z"
                     fill="#424143"
                     id="path27" />
                  <path
                     d="M50.6033333,110.384722 L34.2316667,115.841944 L32.2472222,140.895556 L35.9680556,187.033889 L37.7044444,244.582778 C37.7044444,244.582778 45.1461111,249.295833 52.3397222,244.086667 L53.8280556,182.568889 C53.8280556,182.568889 53.3319444,149.081389 52.3397222,138.166944 C51.0994444,120.058889 50.6033333,110.384722 50.6033333,110.384722 Z"
                     fill="#676868"
                     id="path29" />
                  <path
                     d="M51.5955556,165.205 C51.3475,175.871389 51.5955556,187.033889 50.6033333,197.948333 C50.1072222,214.568056 49.6111111,229.699444 48.3708333,246.319167 C49.8591667,246.071111 51.3475,245.326944 52.8358333,244.086667 L54.3241667,182.568889 C54.3241667,182.568889 53.8280556,149.5775 52.8358333,138.415 C52.3397222,147.345 51.8436111,156.275 51.5955556,165.205 Z"
                     fill="#010101"
                     opacity="0.07"
                     id="path31" />
                  <path
                     d="M6.6975,146.104722 L8.68194444,191.746944 L7.44166667,252.2725 C7.44166667,252.2725 15.3794444,257.977778 20.8366667,252.024444 L28.7744444,191.746944 L34.4797222,141.639722 L41.1772222,118.074444 L7.93777778,116.586111 C7.93777778,116.586111 5.70527778,122.291389 6.6975,146.104722 Z"
                     fill="#676868"
                     id="path33" />
                  <path
                     d="M50.8513889,54.8202778 C50.8513889,47.8747222 47.1305556,43.1616667 42.4175,41.9213889 C29.2705556,38.6966667 27.5341667,35.9680556 19.8444444,38.9447222 C10.1702778,42.4175 0.992222222,49.3630556 0.992222222,49.3630556 L6.20138889,68.4633333 L9.42611111,96.7416667 L7.19361111,120.803056 C24.0613889,134.198056 51.3475,121.299167 51.3475,121.299167 C51.3475,121.299167 51.0994444,100.214444 50.6033333,92.5247222 C50.3552778,89.3 51.0994444,80.37 51.0994444,80.37 C54.0761111,67.7191667 51.0994444,63.2541667 50.8513889,54.8202778 Z"
                     fill="#454E58"
                     id="path35" />
                  <path
                     d="M6.6975,146.104722 L8.68194444,191.746944 L7.44166667,252.2725 C7.44166667,252.2725 8.43388889,253.016667 9.92222222,253.760833 C10.1702778,251.280278 10.1702778,248.799722 10.4183333,246.071111 C10.4183333,227.218889 11.1625,209.855 11.4105556,191.002778 C11.6586111,182.072778 11.9066667,173.142778 12.4027778,164.212778 C10.1702778,151.81 11.1625,139.159167 12.8988889,126.508333 C12.8988889,126.012222 12.8988889,125.268056 12.8988889,124.771944 C12.8988889,123.283611 13.1469444,121.795278 13.8911111,120.803056 C14.1391667,119.562778 14.3872222,118.3225 14.3872222,117.082222 L7.93777778,116.586111 C7.93777778,116.586111 5.70527778,122.291389 6.6975,146.104722 Z"
                     fill="#010101"
                     opacity="0.07"
                     id="path37" />
                  <path
                     d="M30.5108333,151.065833 C28.5263889,160.243889 26.2938889,180.336389 24.8055556,189.7625 C25.0536111,192.491111 24.8055556,195.467778 24.3094444,198.196389 C24.3094444,198.6925 24.3094444,199.436667 24.0613889,199.932778 C19.3483333,218.288889 17.86,235.900833 15.3794444,254.505 C17.3638889,254.505 19.1002778,253.760833 20.8366667,251.776389 L28.7744444,191.498889 L33.2394444,151.313889 L37.4563889,146.352778 C37.4563889,146.600833 30.7588889,149.825556 30.5108333,151.065833 Z"
                     fill="#010101"
                     opacity="0.07"
                     id="path39" />
                  <path
                     d="M53.58,53.0838889 C52.5877778,46.1383333 50.1072222,42.9136111 45.3941667,41.6733333 C44.65,41.4252778 39.9369444,39.4408333 39.9369444,39.6888889 C39.9369444,41.9213889 40.9291667,67.2230556 38.9447222,76.6491667 C38.9447222,76.8972222 49.6111111,152.306111 44.8980556,182.816944 C56.0605556,180.8325 56.8047222,177.607778 56.8047222,177.607778 C56.8047222,177.607778 54.3241667,102.695 53.8280556,94.7572222 C53.3319444,91.2844444 55.3163889,65.2386111 53.58,53.0838889 Z"
                     fill="#F9F9FA"
                     id="path41" />
                  <path
                     d="M35.72,78.1375 C32.4952778,73.4244444 22.0769444,38.2005556 19.8444444,38.9447222 C10.1702778,42.4175 0.992222222,49.3630556 0.992222222,49.3630556 L6.20138889,68.4633333 L4.96111111,101.206667 L2.97666667,178.103889 C11.1625,184.801389 26.0458333,185.049444 36.4641667,183.065 C41.1772222,152.554167 33.7355556,108.648333 35.72,78.1375 Z"
                     fill="#F9F9FA"
                     id="path43" />
                  <path
                     d="M13.1469444,111.128889 C6.94555556,97.9819444 10.9144444,81.8583333 6.20138889,68.7113889 L4.96111111,101.206667 L2.97666667,178.103889 C11.1625,184.801389 26.0458333,185.049444 36.4641667,183.065 C38.4486111,169.918056 38.2005556,154.290556 37.4563889,138.415 C27.0380556,131.965556 18.3561111,122.043333 13.1469444,111.128889 Z"
                     fill="#010101"
                     opacity="0.07"
                     id="path45" />
                  <g
                     transform="translate(12.402778, 0.000000)"
                     id="g61">
                    <path
                       d="M7.44166667,38.9447222 C7.44166667,43.4097222 11.1625,47.1305556 15.6275,47.1305556 C20.0925,47.1305556 23.8133333,43.4097222 23.8133333,38.9447222 L23.8133333,25.5497222 L8.68194444,25.5497222 L7.44166667,38.9447222 Z"
                       fill="#F7CDB4"
                       id="path47" />
                    <path
                       d="M8.43388889,28.5263889 C8.68194444,29.2705556 8.68194444,30.0147222 8.68194444,30.7588889 C8.43388889,36.9602778 14.6352778,45.3941667 21.5808333,41.1772222 C23.3172222,39.9369444 24.0613889,37.9525 24.0613889,34.9758333 C24.0613889,34.9758333 24.0613889,34.9758333 24.0613889,34.9758333 L24.0613889,25.7977778 L8.93,25.7977778 L8.43388889,28.5263889 Z"
                       fill="#010101"
                       opacity="0.07"
                       id="path49" />
                    <path
                       d="M5.45722222,27.7822222 C5.45722222,34.7277778 13.6430556,37.9525 17.86,38.4486111 C22.8211111,39.1927778 28.0302778,35.4719444 28.0302778,28.5263889 L28.0302778,10.9144444 L4.21694444,15.1313889 L5.45722222,27.7822222 Z"
                       fill="#F7CDB4"
                       id="path51" />
                    <g
                       id="g59">
                      <path
                         d="M25.0536111,3.72083333 C15.6275,-2.2325 7.44166667,1.24027778 1.73638889,8.43388889 C-0.992222222,11.9066667 0.992222222,18.8522222 1.73638889,22.0769444 C3.47277778,29.5186111 7.93777778,33.4875 7.93777778,33.4875 L8.68194444,21.8288889 L10.1702778,24.0613889 L12.1547222,22.5730556 C12.1547222,22.5730556 11.4105556,17.6119444 11.4105556,16.8677778 C11.6586111,14.1391667 28.2783333,13.6430556 28.2783333,13.6430556 C28.2783333,13.6430556 35.2238889,10.1702778 25.0536111,3.72083333 Z"
                         fill="#424143"
                         id="path53" />
                      <path
                         d="M7.68972222,34.7277778 L3.96888889,40.185 C8.18583333,50.8513889 17.6119444,52.3397222 17.6119444,52.3397222 L19.5963889,45.8902778 C8.18583333,44.4019444 7.68972222,34.7277778 7.68972222,34.7277778 Z"
                         fill="#F6F6F6"
                         id="path55" />
                      <path
                         d="M19.8444444,46.1383333 C19.8444444,46.1383333 23.8133333,48.8669444 24.8055556,50.6033333 C24.8055556,50.6033333 27.0380556,40.6811111 23.8133333,37.4563889 C23.8133333,37.2083333 24.3094444,42.9136111 19.8444444,46.1383333 Z"
                         fill="#F6F6F6"
                         id="path57" />
                    </g>
                  </g>
                </g>
                <path
                   d="M16.8677778,22.325 C16.3716667,25.3016667 18.6041667,28.7744444 20.8366667,27.5341667 L21.0847222,22.0769444 C21.0847222,22.0769444 17.3638889,18.3561111 16.8677778,22.325 Z"
                   fill="#F7CDB4"
                   id="path65" />
              </g>
              <path
                 d="M47.1305556,45.6422222 C44.65,42.1694444 39.6888889,39.4408333 39.6888889,39.4408333 L36.9602778,38.2005556 C36.9602778,38.2005556 38.2005556,40.9291667 39.4408333,46.3863889 C40.6811111,52.0916667 38.9447222,76.6491667 38.9447222,76.6491667 C42.1694444,63.0061111 48.6188889,52.0916667 48.6188889,52.0916667 L44.65,45.8902778 L47.1305556,45.6422222 Z"
                 id="path69"
                 fill="#010101"
                 opacity="0.07" />
              <path
                 d="M45.6422222,45.3941667 C43.1616667,41.9213889 39.4408333,39.1927778 39.4408333,39.1927778 L36.7122222,37.9525 C36.7122222,37.9525 37.9525,40.6811111 39.1927778,46.1383333 C40.4330556,51.8436111 38.6966667,76.4011111 38.6966667,76.4011111 C42.1694444,63.0061111 47.1305556,52.0916667 47.1305556,52.0916667 L43.1616667,45.8902778 L45.6422222,45.3941667 Z"
                 id="path71"
                 fill="#FFFFFF" />
              <path
                 d="M17.86,37.7044444 C17.86,37.7044444 15.3794444,40.4330556 13.8911111,41.4252778 C12.4027778,42.4175 12.1547222,50.6033333 12.1547222,50.6033333 L15.1313889,50.8513889 L14.8833333,57.3008333 C21.5808333,59.5333333 35.4719444,78.3855556 35.4719444,78.3855556 C32.4952778,68.9594444 27.0380556,57.7969444 23.0691667,52.5877778 C19.1002778,47.3786111 17.86,37.7044444 17.86,37.7044444 Z"
                 id="path73"
                 fill="#010101"
                 opacity="0.07" />
              <path
                 d="M17.86,37.7044444 C17.86,37.7044444 15.3794444,40.4330556 13.8911111,41.4252778 C12.4027778,42.4175 13.1469444,49.8591667 13.1469444,49.8591667 L16.1236111,50.1072222 L15.8755556,56.5566667 C22.5730556,58.7891667 35.4719444,78.1375 35.4719444,78.1375 C32.4952778,68.7113889 27.0380556,57.5488889 23.0691667,52.3397222 C19.1002778,47.1305556 17.86,37.7044444 17.86,37.7044444 Z"
                 id="path75"
                 fill="#FFFFFF" />
              <path
                 d="M14.1391667,79.3777778 L14.1391667,92.5247222 C14.1391667,92.5247222 22.5730556,96.7416667 27.5341667,91.7805556 L26.79,79.3777778 L14.1391667,79.3777778 Z"
                 id="path77"
                 fill="#FFFFFF" />
              <path
                 d="M19.3483333,35.72 L18.1080556,36.4641667 C17.86,36.9602778 14.3872222,41.4252778 18.6041667,53.58 C22.8211111,65.4866667 21.3327778,72.4322222 21.3327778,72.4322222 L22.325,72.6802778 C22.325,72.4322222 24.0613889,65.4866667 19.5963889,53.0838889 C15.3794444,41.4252778 19.3483333,35.9680556 19.3483333,35.72 Z"
                 id="path79"
                 fill="#04556D" />
              <path
                 d="M36.2161111,37.2083333 L36.7122222,37.9525 C36.9602778,37.9525 44.4019444,39.9369444 44.1538889,54.3241667 L44.8980556,54.3241667 C44.65,36.7122222 36.2161111,37.4563889 36.2161111,37.2083333 Z"
                 id="path81"
                 fill="#04556D" />
              <circle
                 id="Oval"
                 fill="#B5B5B5"
                 cx="22.0769444"
                 cy="72.4322222"
                 r="3.47277778" />
              <path
                 d="M22.0769444,69.9516667 C20.5886111,69.9516667 19.5963889,71.1919444 19.5963889,72.4322222 C19.5963889,73.9205556 20.8366667,74.9127778 22.0769444,74.9127778 C23.5652778,74.9127778 24.5575,73.6725 24.5575,72.4322222 C24.5575,70.9438889 23.5652778,69.9516667 22.0769444,69.9516667 Z M22.0769444,73.9205556 C21.3327778,73.9205556 20.5886111,73.1763889 20.5886111,72.4322222 C20.5886111,71.6880556 21.3327778,70.9438889 22.0769444,70.9438889 C22.8211111,70.9438889 23.5652778,71.6880556 23.5652778,72.4322222 C23.5652778,73.1763889 22.8211111,73.9205556 22.0769444,73.9205556 Z"
                 id="Shape"
                 fill="#787877" />
              <path
                 d="M49.6111111,57.5488889 C48.6188889,55.8125 46.8825,54.5722222 44.65,54.3241667 C42.9136111,54.0761111 41.4252778,54.5722222 40.6811111,55.5644444 C37.2083333,60.0294444 41.9213889,74.1686111 43.4097222,77.6413889 C43.1616667,77.8894444 43.1616667,78.1375 43.4097222,78.3855556 L43.9058333,79.8738889 C44.1538889,80.1219444 44.4019444,80.37 44.8980556,80.1219444 C45.3941667,79.8738889 45.6422222,79.6258333 45.3941667,79.1297222 L44.8980556,77.6413889 C44.8980556,77.3933333 44.4019444,77.3933333 44.1538889,77.3933333 C42.9136111,73.6725 38.2005556,60.0294444 41.4252778,56.0605556 C42.1694444,55.0683333 43.1616667,54.8202778 44.65,55.0683333 C46.6344444,55.3163889 48.1227778,56.3086111 48.8669444,57.7969444 C51.3475,62.2619444 48.8669444,70.6958333 48.1227778,73.4244444 C47.8747222,73.4244444 47.6266667,73.6725 47.6266667,73.9205556 L47.1305556,75.4088889 C47.1305556,75.6569444 47.3786111,76.1530556 47.6266667,76.4011111 C48.1227778,76.6491667 48.6188889,76.4011111 48.6188889,75.905 L49.115,74.4166667 C49.115,74.1686111 49.115,73.9205556 48.8669444,73.6725 C49.8591667,70.9438889 52.3397222,62.51 49.6111111,57.5488889 Z"
                 id="path85"
                 fill="#A8A7A6" />
              <path
                 d="M44.65,54.3241667 C42.9136111,54.0761111 41.4252778,54.5722222 40.6811111,55.5644444 C39.4408333,57.0527778 39.1927778,59.5333333 39.4408333,62.2619444 C39.6888889,62.2619444 39.9369444,62.0138889 40.185,62.0138889 C39.9369444,59.5333333 40.185,57.3008333 41.1772222,56.0605556 C41.9213889,55.0683333 42.9136111,54.8202778 44.4019444,55.0683333 C46.3863889,55.3163889 47.8747222,56.3086111 48.6188889,57.7969444 C49.3630556,59.2852778 49.6111111,60.7736111 49.6111111,62.7580556 C49.8591667,63.0061111 50.1072222,63.0061111 50.3552778,63.2541667 C50.3552778,61.2697222 50.1072222,59.0372222 49.115,57.5488889 C48.6188889,55.8125 46.8825,54.8202778 44.65,54.3241667 Z"
                 id="path87"
                 fill="#04556D" />
            </g>
            <g
               id="g124"
               transform="translate(0.000000, 52.091667)">
              <polygon
                 id="polygon90"
                 fill="#8B8A8B"
                 points="6.44944444 206.134167 10.6663889 203.901667 10.6663889 195.963889 6.20138889 193.483333" />
              <g
                 id="g122">
                <g
                   id="g118">
                  <g
                     transform="translate(0.000000, 57.052778)"
                     id="g108">
                    <polygon
                       fill="#C0BFBF"
                       points="2.2325 134.198056 89.7961111 184.801389 89.7961111 102.198889 2.2325 51.8436111"
                       id="polygon92" />
                    <polygon
                       fill="#C0BFBF"
                       points="84.835 194.2275 89.7961111 197.204167 89.7961111 102.198889 84.835 99.4702778"
                       id="polygon94" />
                    <polygon
                       fill="#C0BFBF"
                       points="2.2325 146.600833 6.44944444 149.081389 6.44944444 54.0761111 2.2325 51.8436111"
                       id="polygon96" />
                    <polygon
                       fill="#010101"
                       opacity="0.15"
                       points="2.2325 55.3163889 89.7961111 105.919722 89.7961111 102.198889 2.2325 51.8436111"
                       id="polygon98" />
                    <polygon
                       fill="#FFFFFF"
                       points="260.706389 98.4780556 264.923333 96.2455556 264.923333 1.48833333 260.706389 3.72083333"
                       id="polygon100" />
                    <polygon
                       fill="#FFFFFF"
                       points="89.7961111 197.204167 94.2611111 194.475556 94.2611111 99.7183333 89.7961111 102.198889"
                       id="polygon102" />
                    <polygon
                       fill="#FFFFFF"
                       points="89.7961111 186.537778 264.923333 85.5791667 264.923333 1.48833333 89.7961111 102.198889"
                       id="polygon104" />
                    <polygon
                       fill="#010101"
                       opacity="0.15"
                       points="89.7961111 105.919722 264.923333 5.20916667 264.923333 1.48833333 89.7961111 102.198889"
                       id="polygon106" />
                  </g>
                  <g
                     id="g116">
                    <polygon
                       fill="#333B42"
                       points="0 109.144444 89.7961111 160.988056 89.7961111 155.778889 0.248055556 104.183333"
                       id="polygon110" />
                    <polygon
                       fill="#697179"
                       points="89.7961111 160.988056 268.892222 57.7969444 268.892222 52.5877778 89.7961111 155.778889"
                       id="polygon112" />
                    <polygon
                       fill="#454E58"
                       points="0.248055556 104.183333 89.7961111 155.778889 268.892222 52.5877778 179.096111 0.992222222"
                       id="polygon114" />
                  </g>
                </g>
                <polygon
                   fill="#969696"
                   points="256.489444 153.298333 260.706389 155.530833 260.706389 145.1125 256.489444 147.593056"
                   id="polygon120" />
              </g>
            </g>
            <g
               id="g292"
               transform="translate(69.455556, 109.144444)">
              <g
                 id="g130">
                <path
                   d="M66.4788889,11.4105556 L48.3708333,2.72861111 C47.6266667,2.48055556 46.6344444,2.2325 46.1383333,2.72861111 L0.992222222,28.7744444 C0.248055556,29.0225 0.248055556,29.7666667 0.992222222,30.0147222 L19.1002778,38.6966667 C19.8444444,38.9447222 20.8366667,38.9447222 21.3327778,38.6966667 L66.4788889,12.6508333 C66.975,12.4027778 66.975,11.9066667 66.4788889,11.4105556 Z"
                   fill="#A7A6A6"
                   id="path126" />
                <path
                   d="M66.4788889,12.8988889 L21.3327778,38.9447222 C20.5886111,39.1927778 19.5963889,39.4408333 19.1002778,38.9447222 L0.992222222,30.2627778 C0.744166667,30.0147222 0.496111111,29.7666667 0.496111111,29.5186111 L0.496111111,30.0147222 C0.496111111,30.2627778 0.744166667,30.5108333 0.992222222,30.7588889 L19.1002778,40.4330556 C19.8444444,40.6811111 20.8366667,40.6811111 21.3327778,40.4330556 L66.4788889,14.3872222 C66.7269444,14.1391667 66.975,13.8911111 66.975,13.6430556 L66.975,12.1547222 C66.7269444,12.4027778 66.7269444,12.6508333 66.4788889,12.8988889 Z"
                   fill="#878787"
                   id="path128" />
              </g>
              <g
                 transform="translate(2.480556, 2.480556)"
                 fill="#3C3C3B"
                 id="g290">
                <path
                   d="M44.1538889,1.73638889 C44.1538889,1.73638889 43.9058333,1.73638889 43.9058333,1.73638889 L41.6733333,2.97666667 C41.6733333,2.97666667 41.6733333,3.22472222 41.6733333,3.22472222 L43.9058333,4.465 C43.9058333,4.465 44.1538889,4.465 44.1538889,4.465 L46.3863889,3.22472222 C46.3863889,3.22472222 46.3863889,2.97666667 46.3863889,2.97666667 L44.1538889,1.73638889 Z"
                   id="path132" />
                <path
                   d="M41.1772222,3.22472222 C41.1772222,3.22472222 40.9291667,3.22472222 40.9291667,3.22472222 L38.6966667,4.465 C38.6966667,4.465 38.6966667,4.71305556 38.6966667,4.71305556 L40.9291667,5.95333333 C40.9291667,5.95333333 41.1772222,5.95333333 41.1772222,5.95333333 L43.4097222,4.71305556 C43.4097222,4.71305556 43.4097222,4.465 43.4097222,4.465 L41.1772222,3.22472222 Z"
                   id="path134" />
                <path
                   d="M46.8825,3.22472222 L40.9291667,6.6975 C40.9291667,6.6975 40.9291667,6.6975 40.9291667,6.94555556 L42.9136111,7.93777778 C42.9136111,7.93777778 43.1616667,7.93777778 43.1616667,7.93777778 L49.115,4.465 C49.115,4.465 49.115,4.465 49.115,4.21694444 L47.1305556,3.22472222 C47.1305556,2.97666667 46.8825,2.97666667 46.8825,3.22472222 Z"
                   id="path136" />
                <path
                   d="M49.6111111,4.465 L44.8980556,7.19361111 C44.8980556,7.19361111 44.8980556,7.19361111 44.8980556,7.44166667 L46.8825,8.43388889 C46.8825,8.43388889 47.1305556,8.43388889 47.1305556,8.43388889 L51.8436111,5.70527778 C51.8436111,5.70527778 51.8436111,5.70527778 51.8436111,5.45722222 L49.8591667,4.465 C49.8591667,4.465 49.6111111,4.465 49.6111111,4.465 Z"
                   id="path138" />
                <path
                   d="M52.3397222,5.95333333 L48.6188889,8.18583333 C48.6188889,8.18583333 48.6188889,8.18583333 48.6188889,8.43388889 L50.6033333,9.42611111 C50.6033333,9.42611111 50.8513889,9.42611111 50.8513889,9.42611111 L54.5722222,7.19361111 C54.5722222,7.19361111 54.5722222,7.19361111 54.5722222,6.94555556 L52.5877778,5.95333333 C52.5877778,5.70527778 52.3397222,5.70527778 52.3397222,5.95333333 Z"
                   id="path140" />
                <path
                   d="M55.0683333,7.19361111 L52.5877778,8.43388889 C52.5877778,8.43388889 52.5877778,8.43388889 52.5877778,8.68194444 L54.5722222,9.67416667 C54.5722222,9.67416667 54.8202778,9.67416667 54.8202778,9.67416667 L57.3008333,8.43388889 C57.3008333,8.43388889 57.3008333,8.43388889 57.3008333,8.18583333 L55.3163889,7.19361111 C55.3163889,7.19361111 55.0683333,7.19361111 55.0683333,7.19361111 Z"
                   id="path142" />
                <path
                   d="M57.7969444,8.68194444 L55.3163889,10.1702778 C55.3163889,10.1702778 55.3163889,10.1702778 55.3163889,10.4183333 L56.5566667,10.9144444 C56.5566667,10.9144444 56.8047222,10.9144444 56.8047222,10.9144444 L59.2852778,9.42611111 C59.2852778,9.42611111 59.2852778,9.42611111 59.2852778,9.17805556 L58.045,8.68194444 C58.045,8.43388889 57.7969444,8.43388889 57.7969444,8.68194444 Z"
                   id="path144" />
                <path
                   d="M37.9525,4.96111111 C37.9525,4.96111111 37.7044444,4.96111111 37.7044444,4.96111111 L35.4719444,6.20138889 C35.4719444,6.20138889 35.4719444,6.44944444 35.4719444,6.44944444 L37.7044444,7.68972222 C37.7044444,7.68972222 37.9525,7.68972222 37.9525,7.68972222 L40.185,6.44944444 C40.185,6.44944444 40.185,6.20138889 40.185,6.20138889 L37.9525,4.96111111 Z"
                   id="path146" />
                <path
                   d="M40.185,6.94555556 L37.7044444,8.43388889 C37.7044444,8.43388889 37.7044444,8.43388889 37.7044444,8.68194444 L39.6888889,9.67416667 C39.6888889,9.67416667 39.9369444,9.67416667 39.9369444,9.67416667 L42.4175,8.18583333 C42.4175,8.18583333 42.4175,8.18583333 42.4175,7.93777778 L40.4330556,6.94555556 C40.4330556,6.94555556 40.4330556,6.94555556 40.185,6.94555556 Z"
                   id="path148" />
                <path
                   d="M44.4019444,7.44166667 L41.9213889,8.68194444 C41.9213889,8.68194444 41.9213889,8.68194444 41.9213889,8.93 L43.9058333,9.92222222 C43.9058333,9.92222222 44.1538889,9.92222222 44.1538889,9.92222222 L46.6344444,8.68194444 C46.6344444,8.68194444 46.6344444,8.68194444 46.6344444,8.43388889 L44.65,7.44166667 C44.65,7.44166667 44.4019444,7.44166667 44.4019444,7.44166667 Z"
                   id="path150" />
                <path
                   d="M47.8747222,8.43388889 L45.3941667,9.67416667 C45.3941667,9.67416667 45.3941667,9.67416667 45.3941667,9.92222222 L47.3786111,10.9144444 C47.3786111,10.9144444 47.6266667,10.9144444 47.6266667,10.9144444 L50.1072222,9.67416667 C50.1072222,9.67416667 50.1072222,9.67416667 50.1072222,9.42611111 L48.1227778,8.43388889 C48.1227778,8.43388889 47.8747222,8.43388889 47.8747222,8.43388889 Z"
                   id="path152" />
                <path
                   d="M52.0916667,8.93 L49.6111111,10.4183333 C49.6111111,10.4183333 49.6111111,10.4183333 49.6111111,10.6663889 L51.5955556,11.6586111 C51.5955556,11.6586111 51.8436111,11.6586111 51.8436111,11.6586111 L54.3241667,10.1702778 C54.3241667,10.1702778 54.3241667,10.1702778 54.3241667,9.92222222 L52.3397222,8.93 C52.3397222,8.93 52.0916667,8.93 52.0916667,8.93 Z"
                   id="path154" />
                <path
                   d="M54.8202778,10.4183333 L52.3397222,11.9066667 C52.3397222,11.9066667 52.3397222,11.9066667 52.3397222,12.1547222 L53.58,12.6508333 C53.58,12.6508333 53.8280556,12.6508333 53.8280556,12.6508333 L56.3086111,11.1625 C56.3086111,11.1625 56.3086111,11.1625 56.3086111,10.9144444 L55.0683333,10.4183333 C55.0683333,10.1702778 54.8202778,10.1702778 54.8202778,10.4183333 Z"
                   id="path156" />
                <path
                   d="M34.9758333,6.6975 C34.9758333,6.6975 34.7277778,6.6975 34.7277778,6.6975 L31.7511111,8.43388889 C31.7511111,8.43388889 31.7511111,8.68194444 31.7511111,8.68194444 L33.9836111,9.92222222 C33.9836111,9.92222222 34.2316667,9.92222222 34.2316667,9.92222222 L37.2083333,8.18583333 C37.2083333,8.18583333 37.2083333,7.93777778 37.2083333,7.93777778 L34.9758333,6.6975 Z"
                   id="path158" />
                <path
                   d="M37.2083333,8.68194444 L34.7277778,10.1702778 C34.7277778,10.1702778 34.7277778,10.1702778 34.7277778,10.4183333 L36.7122222,11.4105556 C36.7122222,11.4105556 36.9602778,11.4105556 36.9602778,11.4105556 L39.4408333,10.1702778 C39.4408333,10.1702778 39.4408333,10.1702778 39.4408333,9.92222222 L37.4563889,8.93 C37.4563889,8.68194444 37.4563889,8.68194444 37.2083333,8.68194444 Z"
                   id="path160" />
                <path
                   d="M41.4252778,9.17805556 L38.9447222,10.4183333 C38.9447222,10.4183333 38.9447222,10.4183333 38.9447222,10.6663889 L40.9291667,11.6586111 C40.9291667,11.6586111 41.1772222,11.6586111 41.1772222,11.6586111 L43.6577778,10.4183333 C43.6577778,10.4183333 43.6577778,10.4183333 43.6577778,10.1702778 L41.6733333,9.17805556 C41.6733333,9.17805556 41.4252778,9.17805556 41.4252778,9.17805556 Z"
                   id="path162" />
                <path
                   d="M44.8980556,10.1702778 L42.4175,11.4105556 C42.4175,11.4105556 42.4175,11.4105556 42.4175,11.6586111 L44.4019444,12.6508333 C44.4019444,12.6508333 44.65,12.6508333 44.65,12.6508333 L47.1305556,11.4105556 C47.1305556,11.4105556 47.1305556,11.4105556 47.1305556,11.1625 L45.1461111,10.1702778 C45.1461111,10.1702778 44.8980556,10.1702778 44.8980556,10.1702778 Z"
                   id="path164" />
                <path
                   d="M49.115,10.6663889 L46.6344444,12.1547222 C46.6344444,12.1547222 46.6344444,12.1547222 46.6344444,12.4027778 L48.6188889,13.395 C48.6188889,13.395 48.8669444,13.395 48.8669444,13.395 L51.3475,11.9066667 C51.3475,11.9066667 51.3475,11.9066667 51.3475,11.6586111 L49.3630556,10.6663889 C49.3630556,10.6663889 49.115,10.6663889 49.115,10.6663889 Z"
                   id="path166" />
                <path
                   d="M51.5955556,12.1547222 L49.115,13.6430556 C49.115,13.6430556 49.115,13.6430556 49.115,13.8911111 L50.3552778,14.3872222 C50.3552778,14.3872222 50.6033333,14.3872222 50.6033333,14.3872222 L53.0838889,12.8988889 C53.0838889,12.8988889 53.0838889,12.8988889 53.0838889,12.6508333 L51.8436111,12.1547222 C51.8436111,12.1547222 51.8436111,12.1547222 51.5955556,12.1547222 Z"
                   id="path168" />
                <path
                   d="M31.5030556,8.93 C31.5030556,8.93 31.255,8.93 31.255,8.93 L17.1158333,17.1158333 C17.1158333,17.1158333 17.1158333,17.3638889 17.1158333,17.3638889 L19.3483333,18.6041667 C19.3483333,18.6041667 19.5963889,18.6041667 19.5963889,18.6041667 L33.7355556,10.4183333 C33.7355556,10.4183333 33.7355556,10.1702778 33.7355556,10.1702778 L31.5030556,8.93 Z"
                   id="path170" />
                <path
                   d="M34.2316667,10.4183333 L31.7511111,11.6586111 C31.7511111,11.6586111 31.7511111,11.6586111 31.7511111,11.9066667 L33.7355556,12.8988889 C33.7355556,12.8988889 33.9836111,12.8988889 33.9836111,12.8988889 L36.4641667,11.6586111 C36.4641667,11.6586111 36.4641667,11.6586111 36.4641667,11.4105556 L34.4797222,10.4183333 C34.4797222,10.4183333 34.4797222,10.4183333 34.2316667,10.4183333 Z"
                   id="path172" />
                <path
                   d="M38.4486111,10.9144444 L35.9680556,12.4027778 C35.9680556,12.4027778 35.9680556,12.4027778 35.9680556,12.6508333 L37.9525,13.6430556 C37.9525,13.6430556 38.2005556,13.6430556 38.2005556,13.6430556 L40.6811111,12.4027778 C40.6811111,12.4027778 40.6811111,12.4027778 40.6811111,12.1547222 L38.6966667,11.1625 C38.6966667,10.9144444 38.4486111,10.9144444 38.4486111,10.9144444 Z"
                   id="path174" />
                <path
                   d="M41.9213889,11.9066667 L39.4408333,13.1469444 C39.4408333,13.1469444 39.4408333,13.1469444 39.4408333,13.395 L41.4252778,14.3872222 C41.4252778,14.3872222 41.6733333,14.3872222 41.6733333,14.3872222 L44.1538889,12.8988889 C44.1538889,12.8988889 44.1538889,12.8988889 44.1538889,12.6508333 L42.1694444,11.6586111 C42.1694444,11.9066667 41.9213889,11.9066667 41.9213889,11.9066667 Z"
                   id="path176" />
                <path
                   d="M46.1383333,12.4027778 L43.6577778,13.6430556 C43.6577778,13.6430556 43.6577778,13.6430556 43.6577778,13.8911111 L45.6422222,14.8833333 C45.6422222,14.8833333 45.8902778,14.8833333 45.8902778,14.8833333 L48.3708333,13.6430556 C48.3708333,13.6430556 48.3708333,13.6430556 48.3708333,13.395 L46.3863889,12.4027778 C46.3863889,12.4027778 46.3863889,12.4027778 46.1383333,12.4027778 Z"
                   id="path178" />
                <path
                   d="M48.6188889,13.8911111 L46.1383333,15.3794444 C46.1383333,15.3794444 46.1383333,15.3794444 46.1383333,15.6275 L47.3786111,16.1236111 C47.3786111,16.1236111 47.6266667,16.1236111 47.6266667,16.1236111 L50.1072222,14.6352778 C50.1072222,14.6352778 50.1072222,14.6352778 50.1072222,14.3872222 L48.8669444,13.8911111 C48.8669444,13.8911111 48.6188889,13.8911111 48.6188889,13.8911111 Z"
                   id="path180" />
                <path
                   d="M31.255,12.1547222 L28.7744444,13.6430556 C28.7744444,13.6430556 28.7744444,13.6430556 28.7744444,13.8911111 L30.7588889,14.8833333 C30.7588889,14.8833333 31.0069444,14.8833333 31.0069444,14.8833333 L33.4875,13.395 C33.4875,13.395 33.4875,13.395 33.4875,13.1469444 L31.5030556,12.1547222 C31.5030556,12.1547222 31.5030556,12.1547222 31.255,12.1547222 Z"
                   id="path182" />
                <path
                   d="M35.4719444,12.6508333 L32.9913889,13.8911111 C32.9913889,13.8911111 32.9913889,13.8911111 32.9913889,14.1391667 L34.9758333,15.1313889 C34.9758333,15.1313889 35.2238889,15.1313889 35.2238889,15.1313889 L37.7044444,13.8911111 C37.7044444,13.8911111 37.7044444,13.8911111 37.7044444,13.6430556 L35.72,12.6508333 C35.72,12.6508333 35.4719444,12.6508333 35.4719444,12.6508333 Z"
                   id="path184" />
                <path
                   d="M38.9447222,13.6430556 L36.4641667,15.1313889 C36.4641667,15.1313889 36.4641667,15.1313889 36.4641667,15.3794444 L38.4486111,16.3716667 C38.4486111,16.3716667 38.6966667,16.3716667 38.6966667,16.3716667 L41.1772222,14.8833333 C41.1772222,14.8833333 41.1772222,14.8833333 41.1772222,14.6352778 L39.1927778,13.6430556 C39.1927778,13.395 38.9447222,13.395 38.9447222,13.6430556 Z"
                   id="path186" />
                <path
                   d="M43.1616667,14.1391667 L40.6811111,15.3794444 C40.6811111,15.3794444 40.6811111,15.3794444 40.6811111,15.6275 L42.6655556,16.6197222 C42.6655556,16.6197222 42.9136111,16.6197222 42.9136111,16.6197222 L45.3941667,15.3794444 C45.3941667,15.3794444 45.3941667,15.3794444 45.3941667,15.1313889 L43.4097222,14.1391667 C43.4097222,13.8911111 43.4097222,13.8911111 43.1616667,14.1391667 Z"
                   id="path188" />
                <path
                   d="M45.6422222,15.6275 L43.1616667,17.1158333 C43.1616667,17.1158333 43.1616667,17.1158333 43.1616667,17.3638889 L44.4019444,17.86 C44.4019444,17.86 44.65,17.86 44.65,17.86 L47.1305556,16.3716667 C47.1305556,16.3716667 47.1305556,16.3716667 47.1305556,16.1236111 L45.8902778,15.6275 C45.8902778,15.6275 45.6422222,15.6275 45.6422222,15.6275 Z"
                   id="path190" />
                <path
                   d="M28.2783333,13.8911111 L25.7977778,15.1313889 C25.7977778,15.1313889 25.7977778,15.1313889 25.7977778,15.3794444 L27.7822222,16.3716667 C27.7822222,16.3716667 28.0302778,16.3716667 28.0302778,16.3716667 L30.5108333,15.1313889 C30.5108333,15.1313889 30.5108333,15.1313889 30.5108333,14.8833333 L28.5263889,13.8911111 C28.5263889,13.8911111 28.5263889,13.8911111 28.2783333,13.8911111 Z"
                   id="path192" />
                <path
                   d="M32.4952778,14.3872222 L30.0147222,15.6275 C30.0147222,15.6275 30.0147222,15.6275 30.0147222,15.8755556 L31.9991667,16.8677778 C31.9991667,16.8677778 32.2472222,16.8677778 32.2472222,16.8677778 L34.7277778,15.6275 C34.7277778,15.6275 34.7277778,15.6275 34.7277778,15.3794444 L32.7433333,14.3872222 C32.7433333,14.3872222 32.4952778,14.3872222 32.4952778,14.3872222 Z"
                   id="path194" />
                <path
                   d="M35.9680556,15.3794444 L33.4875,16.6197222 C33.4875,16.6197222 33.4875,16.6197222 33.4875,16.8677778 L35.4719444,17.86 C35.4719444,17.86 35.72,17.86 35.72,17.86 L38.2005556,16.6197222 C38.2005556,16.6197222 38.2005556,16.6197222 38.2005556,16.3716667 L36.2161111,15.3794444 C36.2161111,15.1313889 36.2161111,15.1313889 35.9680556,15.3794444 Z"
                   id="path196" />
                <path
                   d="M40.185,15.6275 L37.7044444,17.1158333 C37.7044444,17.1158333 37.7044444,17.1158333 37.7044444,17.3638889 L39.6888889,18.3561111 C39.6888889,18.3561111 39.9369444,18.3561111 39.9369444,18.3561111 L42.4175,16.8677778 C42.4175,16.8677778 42.4175,16.8677778 42.4175,16.6197222 L40.4330556,15.6275 C40.4330556,15.6275 40.4330556,15.6275 40.185,15.6275 Z"
                   id="path198" />
                <path
                   d="M42.4175,17.3638889 L39.9369444,18.8522222 C39.9369444,18.8522222 39.9369444,18.8522222 39.9369444,19.1002778 L41.1772222,19.5963889 C41.1772222,19.5963889 41.4252778,19.5963889 41.4252778,19.5963889 L43.9058333,18.1080556 C43.9058333,18.1080556 43.9058333,18.1080556 43.9058333,17.86 L42.6655556,17.3638889 C42.6655556,17.3638889 42.6655556,17.3638889 42.4175,17.3638889 Z"
                   id="path200" />
                <path
                   d="M25.3016667,15.6275 L22.8211111,16.8677778 C22.8211111,16.8677778 22.8211111,16.8677778 22.8211111,17.1158333 L24.8055556,18.1080556 C24.8055556,18.1080556 25.0536111,18.1080556 25.0536111,18.1080556 L27.5341667,16.8677778 C27.5341667,16.8677778 27.5341667,16.8677778 27.5341667,16.6197222 L25.5497222,15.6275 C25.5497222,15.3794444 25.5497222,15.3794444 25.3016667,15.6275 Z"
                   id="path202" />
                <path
                   d="M29.5186111,16.1236111 L27.0380556,17.3638889 C27.0380556,17.3638889 27.0380556,17.3638889 27.0380556,17.6119444 L29.0225,18.6041667 C29.0225,18.6041667 29.2705556,18.6041667 29.2705556,18.6041667 L31.7511111,17.3638889 C31.7511111,17.3638889 31.7511111,17.3638889 31.7511111,17.1158333 L29.7666667,16.1236111 C29.7666667,16.1236111 29.5186111,16.1236111 29.5186111,16.1236111 Z"
                   id="path204" />
                <path
                   d="M32.9913889,16.8677778 L30.5108333,18.1080556 C30.5108333,18.1080556 30.5108333,18.1080556 30.5108333,18.3561111 L32.4952778,19.3483333 C32.4952778,19.3483333 32.7433333,19.3483333 32.7433333,19.3483333 L35.2238889,18.1080556 C35.2238889,18.1080556 35.2238889,18.1080556 35.2238889,17.86 L33.2394444,16.8677778 C33.2394444,16.8677778 33.2394444,16.8677778 32.9913889,16.8677778 Z"
                   id="path206" />
                <path
                   d="M22.325,17.3638889 L19.8444444,18.6041667 C19.8444444,18.6041667 19.8444444,18.6041667 19.8444444,18.8522222 L21.8288889,19.8444444 C21.8288889,19.8444444 22.0769444,19.8444444 22.0769444,19.8444444 L24.5575,18.6041667 C24.5575,18.6041667 24.5575,18.6041667 24.5575,18.3561111 L22.5730556,17.3638889 C22.5730556,17.1158333 22.5730556,17.1158333 22.325,17.3638889 Z"
                   id="path208" />
                <path
                   d="M26.5419444,17.86 L24.0613889,19.3483333 C24.0613889,19.3483333 24.0613889,19.3483333 24.0613889,19.5963889 L26.0458333,20.5886111 C26.0458333,20.5886111 26.2938889,20.5886111 26.2938889,20.5886111 L28.7744444,19.1002778 C28.7744444,19.1002778 28.7744444,19.1002778 28.7744444,18.8522222 L26.79,17.86 C26.79,17.6119444 26.79,17.6119444 26.5419444,17.86 Z"
                   id="path210" />
                <path
                   d="M30.0147222,18.6041667 L27.5341667,19.8444444 C27.5341667,19.8444444 27.5341667,19.8444444 27.5341667,20.0925 L29.5186111,21.0847222 C29.5186111,21.0847222 29.7666667,21.0847222 29.7666667,21.0847222 L32.2472222,19.8444444 C32.2472222,19.8444444 32.2472222,19.8444444 32.2472222,19.5963889 L30.2627778,18.6041667 C30.2627778,18.6041667 30.2627778,18.6041667 30.0147222,18.6041667 Z"
                   id="path212" />
                <path
                   d="M37.2083333,17.3638889 L34.7277778,18.8522222 C34.7277778,18.8522222 34.7277778,18.8522222 34.7277778,19.1002778 L36.7122222,20.0925 C36.7122222,20.0925 36.9602778,20.0925 36.9602778,20.0925 L39.4408333,18.6041667 C39.4408333,18.6041667 39.4408333,18.6041667 39.4408333,18.3561111 L37.4563889,17.3638889 C37.4563889,17.3638889 37.4563889,17.3638889 37.2083333,17.3638889 Z"
                   id="path214" />
                <path
                   d="M34.4797222,19.1002778 L31.9991667,20.3405556 C31.9991667,20.3405556 31.9991667,20.3405556 31.9991667,20.5886111 L33.9836111,21.5808333 C33.9836111,21.5808333 34.2316667,21.5808333 34.2316667,21.5808333 L36.7122222,20.3405556 C36.7122222,20.3405556 36.7122222,20.3405556 36.7122222,20.0925 L34.7277778,19.1002778 C34.4797222,19.1002778 34.4797222,19.1002778 34.4797222,19.1002778 Z"
                   id="path216" />
                <path
                   d="M39.4408333,19.1002778 L36.9602778,20.5886111 C36.9602778,20.5886111 36.9602778,20.5886111 36.9602778,20.8366667 L38.2005556,21.3327778 C38.2005556,21.3327778 38.4486111,21.3327778 38.4486111,21.3327778 L40.9291667,19.8444444 C40.9291667,19.8444444 40.9291667,19.8444444 40.9291667,19.5963889 L39.6888889,19.1002778 C39.6888889,19.1002778 39.4408333,19.1002778 39.4408333,19.1002778 Z"
                   id="path218" />
                <path
                   d="M16.6197222,17.3638889 C16.6197222,17.3638889 16.3716667,17.3638889 16.3716667,17.3638889 L13.395,19.1002778 C13.395,19.1002778 13.395,19.3483333 13.395,19.3483333 L15.6275,20.5886111 C15.6275,20.5886111 15.8755556,20.5886111 15.8755556,20.5886111 L18.8522222,18.8522222 C18.8522222,18.8522222 18.8522222,18.6041667 18.8522222,18.6041667 L16.6197222,17.3638889 Z"
                   id="path220" />
                <path
                   d="M19.3483333,18.8522222 L16.8677778,20.0925 C16.8677778,20.0925 16.8677778,20.0925 16.8677778,20.3405556 L18.8522222,21.3327778 C18.8522222,21.3327778 19.1002778,21.3327778 19.1002778,21.3327778 L21.5808333,20.0925 C21.5808333,20.0925 21.5808333,20.0925 21.5808333,19.8444444 L19.5963889,18.8522222 C19.5963889,18.8522222 19.5963889,18.8522222 19.3483333,18.8522222 Z"
                   id="path222" />
                <path
                   d="M23.5652778,19.5963889 L21.0847222,20.8366667 C21.0847222,20.8366667 21.0847222,20.8366667 21.0847222,21.0847222 L23.0691667,22.0769444 C23.0691667,22.0769444 23.3172222,22.0769444 23.3172222,22.0769444 L25.7977778,20.5886111 C25.7977778,20.5886111 25.7977778,20.5886111 25.7977778,20.3405556 L23.8133333,19.3483333 C23.8133333,19.3483333 23.8133333,19.3483333 23.5652778,19.5963889 Z"
                   id="path224" />
                <path
                   d="M27.0380556,20.3405556 L24.5575,21.8288889 C24.5575,21.8288889 24.5575,21.8288889 24.5575,22.0769444 L26.5419444,23.0691667 C26.5419444,23.0691667 26.79,23.0691667 26.79,23.0691667 L29.2705556,21.8288889 C29.2705556,21.8288889 29.2705556,21.8288889 29.2705556,21.5808333 L27.2861111,20.5886111 C27.2861111,20.3405556 27.2861111,20.3405556 27.0380556,20.3405556 Z"
                   id="path226" />
                <path
                   d="M31.5030556,20.8366667 L29.0225,22.0769444 C29.0225,22.0769444 29.0225,22.0769444 29.0225,22.325 L31.0069444,23.3172222 C31.0069444,23.3172222 31.255,23.3172222 31.255,23.3172222 L33.7355556,22.0769444 C33.7355556,22.0769444 33.7355556,22.0769444 33.7355556,21.8288889 L31.7511111,20.8366667 C31.5030556,20.8366667 31.5030556,20.8366667 31.5030556,20.8366667 Z"
                   id="path228" />
                <path
                   d="M36.4641667,20.8366667 L33.9836111,22.325 C33.9836111,22.325 33.9836111,22.325 33.9836111,22.5730556 L35.2238889,23.0691667 C35.2238889,23.0691667 35.4719444,23.0691667 35.4719444,23.0691667 L37.9525,21.5808333 C37.9525,21.5808333 37.9525,21.5808333 37.9525,21.3327778 L36.7122222,20.8366667 C36.7122222,20.8366667 36.4641667,20.8366667 36.4641667,20.8366667 Z"
                   id="path230" />
                <path
                   d="M13.1469444,19.5963889 C13.1469444,19.5963889 12.8988889,19.5963889 12.8988889,19.5963889 L10.6663889,20.8366667 C10.6663889,20.8366667 10.6663889,21.0847222 10.6663889,21.0847222 L12.8988889,22.325 C12.8988889,22.325 13.1469444,22.325 13.1469444,22.325 L15.3794444,21.0847222 C15.3794444,21.0847222 15.3794444,20.8366667 15.3794444,20.8366667 L13.1469444,19.5963889 Z"
                   id="path232" />
                <path
                   d="M16.3716667,20.5886111 L13.8911111,22.0769444 C13.8911111,22.0769444 13.8911111,22.0769444 13.8911111,22.325 L15.8755556,23.3172222 C15.8755556,23.3172222 16.1236111,23.3172222 16.1236111,23.3172222 L18.6041667,21.8288889 C18.6041667,21.8288889 18.6041667,21.8288889 18.6041667,21.5808333 L16.6197222,20.5886111 C16.6197222,20.5886111 16.6197222,20.5886111 16.3716667,20.5886111 Z"
                   id="path234" />
                <path
                   d="M20.5886111,21.0847222 L18.1080556,22.5730556 C18.1080556,22.5730556 18.1080556,22.5730556 18.1080556,22.8211111 L20.0925,23.8133333 C20.0925,23.8133333 20.3405556,23.8133333 20.3405556,23.8133333 L22.8211111,22.325 C22.8211111,22.325 22.8211111,22.325 22.8211111,22.0769444 L20.8366667,21.0847222 C20.8366667,21.0847222 20.8366667,21.0847222 20.5886111,21.0847222 Z"
                   id="path236" />
                <path
                   d="M24.0613889,22.0769444 L21.5808333,23.3172222 C21.5808333,23.3172222 21.5808333,23.3172222 21.5808333,23.5652778 L23.5652778,24.5575 C23.5652778,24.5575 23.8133333,24.5575 23.8133333,24.5575 L26.2938889,23.3172222 C26.2938889,23.3172222 26.2938889,23.3172222 26.2938889,23.0691667 L24.3094444,22.0769444 C24.3094444,22.0769444 24.3094444,22.0769444 24.0613889,22.0769444 Z"
                   id="path238" />
                <path
                   d="M28.5263889,22.5730556 L26.0458333,24.0613889 C26.0458333,24.0613889 26.0458333,24.0613889 26.0458333,24.3094444 L28.0302778,25.3016667 C28.0302778,25.3016667 28.2783333,25.3016667 28.2783333,25.3016667 L30.7588889,23.8133333 C30.7588889,23.8133333 30.7588889,23.8133333 30.7588889,23.5652778 L28.7744444,22.5730556 C28.7744444,22.5730556 28.5263889,22.5730556 28.5263889,22.5730556 Z"
                   id="path240" />
                <path
                   d="M33.2394444,22.8211111 L30.7588889,24.3094444 C30.7588889,24.3094444 30.7588889,24.3094444 30.7588889,24.5575 L31.9991667,25.0536111 C31.9991667,25.0536111 32.2472222,25.0536111 32.2472222,25.0536111 L34.7277778,23.5652778 C34.7277778,23.5652778 34.7277778,23.5652778 34.7277778,23.3172222 L33.4875,22.8211111 C33.4875,22.5730556 33.4875,22.5730556 33.2394444,22.8211111 Z"
                   id="path242" />
                <path
                   d="M9.67416667,21.3327778 L7.19361111,22.5730556 C7.19361111,22.5730556 7.19361111,22.5730556 7.19361111,22.8211111 L8.18583333,23.3172222 C8.18583333,23.3172222 8.43388889,23.3172222 8.43388889,23.3172222 L10.9144444,22.0769444 C10.9144444,22.0769444 10.9144444,22.0769444 10.9144444,21.8288889 L9.92222222,21.3327778 C9.92222222,21.0847222 9.92222222,21.0847222 9.67416667,21.3327778 Z"
                   id="path244" />
                <path
                   d="M13.395,22.325 L10.9144444,23.5652778 C10.9144444,23.5652778 10.9144444,23.5652778 10.9144444,23.8133333 L12.8988889,24.8055556 C12.8988889,24.8055556 13.1469444,24.8055556 13.1469444,24.8055556 L15.6275,23.3172222 C15.6275,23.3172222 15.6275,23.3172222 15.6275,23.0691667 L13.6430556,22.0769444 C13.6430556,22.325 13.6430556,22.325 13.395,22.325 Z"
                   id="path246" />
                <path
                   d="M17.6119444,22.8211111 L15.1313889,24.0613889 C15.1313889,24.0613889 15.1313889,24.0613889 15.1313889,24.3094444 L17.1158333,25.3016667 C17.1158333,25.3016667 17.3638889,25.3016667 17.3638889,25.3016667 L19.8444444,24.0613889 C19.8444444,24.0613889 19.8444444,24.0613889 19.8444444,23.8133333 L17.86,22.8211111 C17.86,22.8211111 17.86,22.8211111 17.6119444,22.8211111 Z"
                   id="path248" />
                <path
                   d="M21.0847222,23.8133333 L18.6041667,25.0536111 C18.6041667,25.0536111 18.6041667,25.0536111 18.6041667,25.3016667 L20.5886111,26.2938889 C20.5886111,26.2938889 20.8366667,26.2938889 20.8366667,26.2938889 L23.3172222,25.0536111 C23.3172222,25.0536111 23.3172222,25.0536111 23.3172222,24.8055556 L21.3327778,23.8133333 C21.3327778,23.8133333 21.3327778,23.8133333 21.0847222,23.8133333 Z"
                   id="path250" />
                <path
                   d="M25.5497222,24.3094444 L23.0691667,25.7977778 C23.0691667,25.7977778 23.0691667,25.7977778 23.0691667,26.0458333 L25.0536111,27.0380556 C25.0536111,27.0380556 25.3016667,27.0380556 25.3016667,27.0380556 L27.7822222,25.5497222 C27.7822222,25.5497222 27.7822222,25.5497222 27.7822222,25.3016667 L25.7977778,24.3094444 C25.7977778,24.3094444 25.5497222,24.3094444 25.5497222,24.3094444 Z"
                   id="path252" />
                <path
                   d="M30.2627778,24.5575 L27.7822222,26.0458333 C27.7822222,26.0458333 27.7822222,26.0458333 27.7822222,26.2938889 L29.0225,26.79 C29.0225,26.79 29.2705556,26.79 29.2705556,26.79 L31.7511111,25.3016667 C31.7511111,25.3016667 31.7511111,25.3016667 31.7511111,25.0536111 L30.5108333,24.5575 C30.5108333,24.3094444 30.2627778,24.3094444 30.2627778,24.5575 Z"
                   id="path254" />
                <path
                   d="M6.6975,23.0691667 L4.21694444,24.5575 C4.21694444,24.5575 4.21694444,24.5575 4.21694444,24.8055556 L5.20916667,25.3016667 C5.20916667,25.3016667 5.45722222,25.3016667 5.45722222,25.3016667 L7.93777778,23.8133333 C7.93777778,23.8133333 7.93777778,23.8133333 7.93777778,23.5652778 L6.94555556,23.0691667 C6.94555556,22.8211111 6.94555556,22.8211111 6.6975,23.0691667 Z"
                   id="path256" />
                <path
                   d="M3.72083333,24.8055556 L1.24027778,26.2938889 C1.24027778,26.2938889 1.24027778,26.2938889 1.24027778,26.5419444 L2.2325,27.0380556 C2.2325,27.0380556 2.48055556,27.0380556 2.48055556,27.0380556 L4.96111111,25.7977778 C4.96111111,25.7977778 4.96111111,25.7977778 4.96111111,25.5497222 L3.96888889,25.0536111 C3.96888889,24.5575 3.96888889,24.5575 3.72083333,24.8055556 Z"
                   id="path258" />
                <path
                   d="M8.18583333,23.5652778 L5.70527778,24.8055556 C5.70527778,24.8055556 5.70527778,24.8055556 5.70527778,25.0536111 L6.6975,25.5497222 C6.6975,25.5497222 6.94555556,25.5497222 6.94555556,25.5497222 L9.42611111,24.3094444 C9.42611111,24.3094444 9.42611111,24.3094444 9.42611111,24.0613889 L8.43388889,23.5652778 C8.43388889,23.5652778 8.18583333,23.5652778 8.18583333,23.5652778 Z"
                   id="path260" />
                <path
                   d="M10.4183333,24.0613889 L4.465,27.5341667 C4.465,27.5341667 4.465,27.5341667 4.465,27.7822222 L6.44944444,28.7744444 C6.44944444,28.7744444 6.6975,28.7744444 6.6975,28.7744444 L12.6508333,25.3016667 C12.6508333,25.3016667 12.6508333,25.3016667 12.6508333,25.0536111 L10.6663889,24.0613889 C10.6663889,24.0613889 10.6663889,24.0613889 10.4183333,24.0613889 Z"
                   id="path262" />
                <path
                   d="M14.6352778,24.5575 L12.1547222,25.7977778 C12.1547222,25.7977778 12.1547222,25.7977778 12.1547222,26.0458333 L14.1391667,27.0380556 C14.1391667,27.0380556 14.3872222,27.0380556 14.3872222,27.0380556 L16.8677778,25.5497222 C16.8677778,25.5497222 16.8677778,25.5497222 16.8677778,25.3016667 L14.8833333,24.3094444 C14.8833333,24.5575 14.8833333,24.5575 14.6352778,24.5575 Z"
                   id="path264" />
                <path
                   d="M18.1080556,25.5497222 L15.6275,27.0380556 C15.6275,27.0380556 15.6275,27.0380556 15.6275,27.2861111 L17.6119444,28.2783333 C17.6119444,28.2783333 17.86,28.2783333 17.86,28.2783333 L20.3405556,26.79 C20.3405556,26.79 20.3405556,26.79 20.3405556,26.5419444 L18.3561111,25.5497222 C18.3561111,25.5497222 18.3561111,25.5497222 18.1080556,25.5497222 Z"
                   id="path266" />
                <path
                   d="M22.5730556,26.0458333 L20.0925,27.2861111 C20.0925,27.2861111 20.0925,27.2861111 20.0925,27.5341667 L22.0769444,28.5263889 C22.0769444,28.5263889 22.325,28.5263889 22.325,28.5263889 L24.8055556,27.2861111 C24.8055556,27.2861111 24.8055556,27.2861111 24.8055556,27.0380556 L22.8211111,26.0458333 C22.8211111,26.0458333 22.5730556,26.0458333 22.5730556,26.0458333 Z"
                   id="path268" />
                <path
                   d="M27.2861111,26.2938889 L24.8055556,27.7822222 C24.8055556,27.7822222 24.8055556,27.7822222 24.8055556,28.0302778 L26.0458333,28.5263889 C26.0458333,28.5263889 26.2938889,28.5263889 26.2938889,28.5263889 L28.7744444,27.0380556 C28.7744444,27.0380556 28.7744444,27.0380556 28.7744444,26.79 L27.5341667,26.2938889 C27.5341667,26.2938889 27.2861111,26.2938889 27.2861111,26.2938889 Z"
                   id="path270" />
                <g
                   transform="translate(7.441667, 24.805556)"
                   id="g278">
                  <path
                     d="M4.465,1.48833333 L1.98444444,2.72861111 C1.98444444,2.72861111 1.98444444,2.72861111 1.98444444,2.97666667 L3.96888889,3.96888889 C3.96888889,3.96888889 4.21694444,3.96888889 4.21694444,3.96888889 L6.6975,2.72861111 C6.6975,2.72861111 6.6975,2.72861111 6.6975,2.48055556 L4.71305556,1.48833333 C4.465,1.48833333 4.465,1.48833333 4.465,1.48833333 Z"
                     id="path272" />
                  <path
                     d="M7.68972222,2.48055556 L5.20916667,3.72083333 C5.20916667,3.72083333 5.20916667,3.72083333 5.20916667,3.96888889 L7.44166667,4.96111111 C7.44166667,4.96111111 7.68972222,4.96111111 7.68972222,4.96111111 L10.1702778,3.47277778 C10.1702778,3.47277778 10.1702778,3.47277778 10.1702778,3.22472222 L8.18583333,2.2325 C7.93777778,2.48055556 7.93777778,2.48055556 7.68972222,2.48055556 Z"
                     id="path274" />
                  <path
                     d="M4.96111111,4.21694444 L4.465,4.465 L1.73638889,3.22472222 C1.73638889,3.22472222 1.48833333,3.22472222 1.48833333,3.22472222 L1.42108547e-14,4.21694444 C1.42108547e-14,4.21694444 1.42108547e-14,4.21694444 1.42108547e-14,4.465 L4.71305556,6.6975 C4.71305556,6.6975 4.96111111,6.6975 4.96111111,6.6975 L7.19361111,5.45722222 C7.19361111,5.45722222 7.19361111,5.45722222 7.19361111,5.20916667 L5.20916667,4.21694444 C5.20916667,4.21694444 4.96111111,4.21694444 4.96111111,4.21694444 Z"
                     id="path276" />
                </g>
                <path
                   d="M19.5963889,27.7822222 L17.1158333,29.0225 C17.1158333,29.0225 17.1158333,29.0225 17.1158333,29.2705556 L19.1002778,30.2627778 C19.1002778,30.2627778 19.3483333,30.2627778 19.3483333,30.2627778 L21.8288889,29.0225 C21.8288889,29.0225 21.8288889,29.0225 21.8288889,28.7744444 L19.8444444,27.7822222 C19.8444444,27.5341667 19.5963889,27.5341667 19.5963889,27.7822222 Z"
                   id="path280" />
                <path
                   d="M24.0613889,28.0302778 L21.5808333,29.5186111 C21.5808333,29.5186111 21.5808333,29.5186111 21.5808333,29.7666667 L22.8211111,30.2627778 C22.8211111,30.2627778 23.0691667,30.2627778 23.0691667,30.2627778 L25.5497222,28.7744444 C25.5497222,28.7744444 25.5497222,28.7744444 25.5497222,28.5263889 L24.3094444,28.0302778 C24.3094444,28.0302778 24.3094444,28.0302778 24.0613889,28.0302778 Z"
                   id="path282" />
                <path
                   d="M16.6197222,29.5186111 L12.6508333,31.7511111 C12.6508333,31.7511111 12.6508333,31.7511111 12.6508333,31.9991667 L14.6352778,32.9913889 C14.6352778,32.9913889 14.8833333,32.9913889 14.8833333,32.9913889 L18.8522222,30.7588889 C18.8522222,30.7588889 18.8522222,30.7588889 18.8522222,30.5108333 L16.8677778,29.5186111 C16.8677778,29.2705556 16.6197222,29.2705556 16.6197222,29.5186111 Z"
                   id="path284" />
                <path
                   d="M21.0847222,29.7666667 L18.6041667,31.255 C18.6041667,31.255 18.6041667,31.255 18.6041667,31.5030556 L19.8444444,31.9991667 C19.8444444,31.9991667 20.0925,31.9991667 20.0925,31.9991667 L22.5730556,30.5108333 C22.5730556,30.5108333 22.5730556,30.5108333 22.5730556,30.2627778 L21.3327778,29.7666667 C21.3327778,29.7666667 21.0847222,29.7666667 21.0847222,29.7666667 Z"
                   id="path286" />
                <path
                   d="M18.1080556,31.5030556 L15.6275,32.9913889 C15.6275,32.9913889 15.6275,32.9913889 15.6275,33.2394444 L16.8677778,33.7355556 C16.8677778,33.7355556 17.1158333,33.7355556 17.1158333,33.7355556 L19.5963889,32.2472222 C19.5963889,32.2472222 19.5963889,32.2472222 19.5963889,31.9991667 L18.3561111,31.5030556 C18.3561111,31.5030556 18.1080556,31.5030556 18.1080556,31.5030556 Z"
                   id="path288" />
              </g>
            </g>
            <path
               d="M66.975,120.555 C65.4866667,119.314722 60.5255556,125.02 60.5255556,125.02 C60.5255556,125.02 61.7658333,127.500556 62.7580556,128.244722 C63.7502778,128.988889 70.4477778,132.461667 70.4477778,132.461667 L72.1841667,135.438333 L73.4244444,138.663056 C74.1686111,139.407222 74.9127778,138.415 74.9127778,138.415 L74.4166667,135.190278 L73.6725,131.469444 L75.905,133.701944 L77.8894444,137.670833 C78.3855556,139.159167 79.6258333,138.166944 79.6258333,138.166944 L78.8816667,133.95 L77.6413889,131.221389 L79.8738889,133.453889 L81.6102778,135.686389 C83.0986111,136.926667 83.8427778,135.438333 83.8427778,135.438333 L81.1141667,130.725278 L83.3466667,131.965556 C85.0830556,132.709722 85.8272222,131.469444 85.8272222,131.469444 L76.6491667,123.531667 L66.975,120.555 Z"
               id="path294"
               fill="#F7CDB4" />
            <path
               d="M49.8591667,66.2308333 C49.8591667,66.2308333 50.1072222,47.8747222 44.1538889,47.3786111 C34.2316667,46.3863889 32.7433333,63.0061111 32.7433333,63.0061111 L29.7666667,103.439167 C29.5186111,106.663889 31.255,109.640556 33.9836111,110.880833 L61.7658333,129.733056 C61.7658333,129.733056 62.0138889,123.035556 69.2075,119.562778 L46.6344444,98.23 L49.8591667,66.2308333 Z"
               id="path296"
               fill="#FFFFFF" />
            <path
               d="M33.2394444,92.2766667 C34.7277778,80.1219444 33.9836111,66.4788889 37.9525,53.58 C38.2005556,52.5877778 38.6966667,51.5955556 39.1927778,50.8513889 C39.4408333,49.8591667 39.6888889,49.115 39.9369444,48.3708333 C33.7355556,51.5955556 32.7433333,63.0061111 32.7433333,63.0061111 L29.7666667,103.439167 C29.5186111,106.663889 31.255,109.640556 33.9836111,110.880833 L61.7658333,129.733056 C61.7658333,129.733056 61.7658333,128.740833 62.2619444,127.2525 C57.0527778,124.027778 31.0069444,109.3925 33.2394444,92.2766667 Z"
               id="path298"
               fill="#010101"
               opacity="0.07" />
            <path
               d="M53.0838889,153.298333 C50.1072222,153.298333 47.3786111,155.034722 46.6344444,156.771111 C45.3941667,159.003611 55.3163889,162.9725 57.0527778,163.220556 C59.0372222,163.716667 63.9983333,160.988056 63.9983333,159.499722 C63.9983333,157.019167 56.3086111,153.298333 53.0838889,153.298333 Z"
               id="path300"
               fill="#FFFFFF" />
            <path
               d="M46.6344444,156.771111 C45.3941667,159.003611 55.3163889,162.9725 57.0527778,163.220556 C58.045,163.468611 59.7813889,162.9725 61.2697222,161.980278 C56.0605556,161.732222 50.6033333,159.747778 46.8825,156.275 C46.8825,156.523056 46.8825,156.523056 46.6344444,156.771111 Z"
               id="path302"
               fill="#F1F0F0" />
            <g
               id="g308"
               transform="translate(99.222222, 101.702778)"
               fill="#F7CDB4">
              <path
                 d="M15.1313889,3.72083333 L5.95333333,0 L2.2325,4.21694444 L2.97666667,6.6975 L3.72083333,11.4105556 L8.18583333,16.3716667 C8.18583333,16.3716667 8.93,16.1236111 8.93,14.8833333 C8.93,13.8911111 7.93777778,13.6430556 6.6975,11.1625 C5.45722222,8.68194444 10.1702778,10.9144444 10.1702778,10.9144444 L13.1469444,13.8911111 L14.6352778,16.8677778 C14.6352778,16.8677778 15.6275,18.3561111 16.8677778,17.1158333 L14.3872222,11.1625 L16.3716667,13.395 L17.86,16.3716667 C17.86,16.3716667 18.8522222,17.86 20.0925,16.6197222 L17.1158333,10.1702778 L19.1002778,11.9066667 L21.0847222,14.6352778 C21.0847222,14.6352778 21.8288889,15.8755556 23.3172222,14.8833333 L20.8366667,10.1702778 L15.1313889,3.72083333 Z"
                 id="path304" />
              <polygon
                 id="polygon306"
                 points="15.1313889 3.72083333 20.3405556 10.4183333 19.8444444 7.68972222" />
            </g>
            <path
               d="M90.7883333,94.5091667 L91.2844444,103.439167 L101.702778,111.376944 C101.702778,111.376944 102.446944,107.904167 103.191111,106.663889 C105.175556,103.439167 108.648333,102.198889 108.648333,102.198889 L98.23,91.2844444 L90.7883333,94.5091667 Z"
               id="path310"
               fill="#FFFFFF" />
            <g
               id="g322"
               transform="translate(166.197222, 79.377778)">
              <path
                 d="M23.8133333,2.2325 C23.3172222,1.98444444 22.5730556,1.98444444 22.0769444,2.2325 L1.73638889,13.8911111 C0.992222222,14.3872222 0.992222222,15.3794444 1.73638889,15.6275 L31.7511111,32.7433333 C32.2472222,32.9913889 32.9913889,32.9913889 33.4875,32.7433333 L53.0838889,21.0847222 C53.8280556,20.5886111 53.8280556,19.5963889 53.0838889,19.3483333 L23.8133333,2.2325 Z"
                 id="path312"
                 fill="#989898" />
              <polygon
                 id="polygon314"
                 fill="#F3F3F3"
                 points="6.44944444 13.6430556 31.7511111 28.0302778 48.1227778 18.8522222 23.3172222 3.96888889" />
              <polygon
                 id="polygon316"
                 fill="#FFFFFF"
                 points="6.44944444 14.6352778 31.7511111 29.0225 48.1227778 19.8444444 23.3172222 4.96111111" />
              <path
                 d="M42.4175,21.0847222 C42.4175,21.0847222 42.1694444,21.0847222 42.1694444,21.0847222 L34.9758333,25.3016667 C34.9758333,25.3016667 34.7277778,25.5497222 34.7277778,25.5497222 C34.7277778,25.5497222 34.7277778,25.7977778 34.9758333,25.7977778 L38.6966667,27.7822222 C38.6966667,27.7822222 38.6966667,27.7822222 38.9447222,27.7822222 C38.9447222,27.7822222 38.9447222,27.7822222 39.1927778,27.7822222 L46.3863889,23.5652778 C46.3863889,23.5652778 46.6344444,23.3172222 46.6344444,23.3172222 C46.6344444,23.3172222 46.6344444,23.0691667 46.3863889,23.0691667 L42.4175,21.0847222 Z M38.4486111,27.2861111 L35.4719444,25.5497222 L42.1694444,21.8288889 L45.1461111,23.5652778 L38.4486111,27.2861111 Z"
                 id="path318"
                 fill="#505050" />
              <path
                 d="M37.2083333,26.79 L38.6966667,27.7822222 L45.8902778,23.5652778 L44.4019444,22.8211111 C44.4019444,22.5730556 37.2083333,26.79 37.2083333,26.79 Z"
                 id="path320"
                 fill="#505050" />
            </g>
            <g
               id="g338"
               transform="translate(104.183333, 71.936111)">
              <path
                 d="M45.1461111,71.6880556 C44.1538889,71.1919444 42.9136111,71.1919444 42.1694444,71.6880556 L24.5575,81.8583333 C23.8133333,82.3544444 23.8133333,83.3466667 24.5575,83.8427778 L31.255,87.8116667 C32.2472222,88.3077778 33.4875,88.3077778 34.4797222,87.8116667 L52.0916667,77.6413889 C52.8358333,77.1452778 52.8358333,76.1530556 52.0916667,75.6569444 L45.1461111,71.6880556 Z"
                 id="path324"
                 fill="#676868" />
              <path
                 d="M61.0216667,0.248055556 L10.6663889,28.2783333 C9.92222222,28.7744444 9.17805556,29.5186111 8.93,30.2627778 L0.496111111,76.8972222 C-2.22044605e-16,78.3855556 3.22472222,80.8661111 4.465,80.1219444 L52.5877778,50.3552778 C53.3319444,49.8591667 53.8280556,49.115 54.3241667,48.3708333 L65.2386111,2.97666667 C65.7347222,1.48833333 62.2619444,-0.496111111 61.0216667,0.248055556 Z"
                 id="path326"
                 fill="#676868" />
              <path
                 d="M62.7580556,1.24027778 L12.4027778,29.2705556 C11.6586111,29.7666667 10.9144444,30.5108333 10.6663889,31.255 L2.48055556,77.8894444 C1.98444444,79.3777778 3.72083333,80.6180556 4.96111111,79.8738889 L54.5722222,51.3475 C55.3163889,50.8513889 55.8125,50.1072222 56.3086111,49.3630556 L65.4866667,3.47277778 C65.7347222,1.98444444 63.9983333,0.496111111 62.7580556,1.24027778 Z"
                 id="path328"
                 fill="#676868" />
              <polygon
                 id="polygon330"
                 fill="#989898"
                 points="31.0069444 56.8047222 31.0069444 83.5947222 44.8980556 75.1608333 41.4252778 50.8513889" />
              <polygon
                 id="polygon332"
                 fill="#838383"
                 points="30.2627778 53.8280556 31.0069444 56.8047222 41.4252778 50.8513889 39.1927778 48.6188889" />
              <polygon
                 id="polygon334"
                 fill="#676868"
                 points="30.2627778 53.8280556 30.0147222 54.8202778 30.5108333 56.8047222 29.7666667 82.3544444 31.0069444 83.5947222 31.0069444 56.8047222" />
              <polygon
                 id="polygon336"
                 fill="#414141"
                 points="16.1236111 35.72 60.2775 10.4183333 60.5255556 9.17805556 16.3716667 34.7277778" />
            </g>
            <path
               d="M93.5169444,100.4625 C92.7727778,99.2222222 91.5325,71.44 91.5325,71.44 C90.2922222,81.8583333 91.5325,103.439167 91.5325,103.439167 L101.950833,111.376944 L102.198889,108.400278 C101.950833,108.400278 94.2611111,101.702778 93.5169444,100.4625 Z"
               id="path340"
               fill="#010101"
               opacity="0.07" />
          </g>
        </g>
      </g>
    </g>
  </g>
  <g
     style="fill:none;fill-rule:evenodd;stroke:none;stroke-width:1"
     id="Medisis_system-4"
     transform="translate(164.96126,165.97457)">
    <g
       style="fill:#d4d4d4"
       id="Medisis_login_HD"
       transform="translate(-560,-501)">
      <g
         id="doctor_login-0"
         transform="translate(110,257)">
        <path
           inkscape:connector-curvature="0"
           d="m 480.7958,275.88889 1.68401,3.72773 c 0.0888,0.19386 0.26861,0.25225 0.4648,0.15181 l 12.2319,-6.17784 -0.0187,0.31064 c -10.16716,5.14315 -18.90023,21.0257 -19.00767,34.17318 L 465.58125,314 c -0.21255,-8.54154 2.05071,-18.12012 6.09142,-27.13347 l 1.21455,13.44878 c 0.0304,0.31532 0.23824,0.46013 0.49516,0.34568 0.014,-0.005 0.028,-0.014 0.042,-0.021 0.24058,-0.13079 0.45546,-0.45545 0.51852,-0.79179 l 2.9009,-15.52753 0.3994,1.01602 c 0.0864,0.21955 0.28028,0.28729 0.49283,0.17985 0.22189,-0.11679 0.42042,-0.39006 0.50917,-0.70304 z m 15.29863,-17.40307 -0.82683,13.61928 -11.95862,6.00034 -2.03671,-4.57558 c -0.0934,-0.21254 -0.28495,-0.25692 -0.5045,-0.15882 -0.21255,0.11678 -0.40641,0.39239 -0.49516,0.71004 l -2.51786,8.85919 -0.51851,-1.34534 c -0.0934,-0.24291 -0.31065,-0.31298 -0.55122,-0.1635 -0.23357,0.14248 -0.4321,0.46714 -0.49516,0.80581 l -2.54121,13.77577 -0.97865,-11.28829 c 5.79947,-11.95629 14.35269,-21.9693 23.42443,-26.2389 z m -30.78412,25.35602 2.16984,6.72439 c -4.68535,6.11712 -10.25826,11.15049 -16.43377,14.38539 l -0.6026,-8.76577 12.90457,-6.51885 c 0.22889,-0.11445 0.4321,-0.39006 0.52085,-0.70537 z m 5.35102,-8.1725 0.81982,9.07173 c -0.81281,1.32199 -1.65833,2.60661 -2.53887,3.84685 z M 483.47247,244 c -0.3667,14.19153 -4.59192,28.00934 -10.94961,39.001 l -1.12813,-13.04238 c -0.035,-0.39005 -0.27795,-0.59092 -0.56991,-0.4718 -0.29429,0.0911 -0.55121,0.51852 -0.60493,0.94828 l -2.25159,17.24658 -2.06473,-6.51184 c -0.0864,-0.26861 -0.3013,-0.37605 -0.54188,-0.27561 -0.24991,0.0841 -0.46946,0.39473 -0.56289,0.73573 l -1.87321,6.70104 -12.58692,6.31565 L 450,289.75108 c 12.05906,-5.92092 21.34801,-23.39172 21.24758,-40.56356 z"
           id="logoperspective" />
      </g>
    </g>
  </g>
</svg>
