<?xml version="1.0" encoding="UTF-8"?>
<svg width="567px" height="359px" viewBox="0 0 567 359" version="1.1" xmlns="http://www.w3.org/2000/svg" xmlns:xlink="http://www.w3.org/1999/xlink">
    <!-- Generator: sketchtool 60.1 (101010) - https://sketch.com -->
    <title>BDF0DB11-6517-4F9E-9579-652D270F1C51</title>
    <desc>Created with sketchtool.</desc>
    <defs>
        <polygon id="path-1" points="0.00202366864 3.06568101 566.784391 3.06568101 566.784391 330.532544 0.00202366864 330.532544"></polygon>
        <polygon id="path-3" points="0.000107535229 2.9747929 566.783424 2.9747929 566.783424 343.930801 0.000107535229 343.930801"></polygon>
    </defs>
    <g id="Medisis_system" stroke="none" stroke-width="1" fill="none" fill-rule="evenodd">
        <g id="Medisis_login_1024" transform="translate(-227.000000, -83.000000)">
            <g id="doctor_login" transform="translate(227.000000, 40.000000)">
                <g id="floor" transform="translate(0.000000, 39.900000)">
                    <g id="Group-3" transform="translate(0.000000, 30.753018)">
                        <mask id="mask-2" fill="white">
                            <use xlink:href="#path-1"></use>
                        </mask>
                        <g id="Clip-2"></g>
                        <path d="M308.975751,9.95881065 C293.042734,0.757863905 273.409775,0.767982249 257.483503,9.98916568 L27.510426,143.099343 L0.00202366864,143.099343 L0.00202366864,158.698456 L0.00202366864,158.698456 C-0.0215857988,166.361414 3.70533728,174.037864 11.2165207,178.516917 L254.124213,323.280053 C270.192142,332.855379 290.196107,332.956562 306.361846,323.539757 L555.374272,178.432598 C562.689834,174.172775 566.44374,166.880822 566.727053,159.477568 L566.784391,159.477568 L566.784391,143.099343 L539.576166,143.099343 L308.975751,9.95881065 Z" id="Fill-1" fill="#B7CBD4" mask="url(#mask-2)"></path>
                    </g>
                    <g id="Group-6" transform="translate(0.000000, 0.397988)">
                        <mask id="mask-4" fill="white">
                            <use xlink:href="#path-3"></use>
                        </mask>
                        <g id="Clip-5"></g>
                        <path d="M555.295686,152.076675 L308.97474,9.86673373 C293.041722,0.665786982 273.408763,0.675905325 257.482491,9.89371598 L11.4684675,152.285787 C-3.70904734,161.071882 -3.85070414,182.934249 11.2155089,191.915964 L254.123201,336.675728 C270.194503,346.254426 290.195095,346.355609 306.360834,336.935432 L555.37326,191.831645 C570.621604,182.944367 570.577757,160.89987 555.295686,152.076675" id="Fill-4" fill="#E7EEF1" mask="url(#mask-4)"></path>
                    </g>
                </g>
            </g>
        </g>
    </g>
</svg>