<?xml version="1.0" encoding="UTF-8"?>
<svg width="170px" height="99px" viewBox="0 0 170 99" version="1.1" xmlns="http://www.w3.org/2000/svg" xmlns:xlink="http://www.w3.org/1999/xlink">
    <!-- Generator: sketchtool 60.1 (101010) - https://sketch.com -->
    <title>25E18E78-0A45-4F01-A052-FBE3048EE6EA</title>
    <desc>Created with sketchtool.</desc>
    <g id="Asset-Artboard-Page" stroke="none" stroke-width="1" fill="none" fill-rule="evenodd">
        <g id="Logo_vertical-white" transform="translate(0.321059, 0.000000)" fill="#FFFFFF">
            <path d="M95.8236454,31.2315854 L98.5845009,36.3584049 C98.7308112,36.6321428 99.017419,36.8015995 99.3270758,36.8015995 L99.3270758,36.8015995 L118.9998,36.8015995 L118.9998,37.1565563 C102.55392,37.1565563 89.1735412,50.5436415 89.1735412,67 L89.1735412,67 L72.3007558,67 C72.3007558,56.2189394 75.9775539,46.2881708 82.1306039,38.3738375 L82.1306039,38.3738375 L83.9103786,54.904396 C83.9544721,55.3084853 84.2801629,55.6253393 84.6860236,55.6564231 C84.7070683,55.6584285 84.729115,55.6584285 84.7501597,55.6584285 C85.1299652,55.6584285 85.4676815,55.4027393 85.5658897,55.0297339 L85.5658897,55.0297339 L89.9371608,38.4670889 L90.5684998,39.8608458 C90.7057909,40.1636621 91.0064286,40.356181 91.3381321,40.356181 L91.3381321,40.356181 C91.6788547,40.3531729 91.9794923,40.153635 92.1117729,39.846808 L92.1117729,39.846808 L95.8236454,31.2315854 Z M119,20.2741494 L119,35.114151 L99.8303432,35.114151 L96.4802379,28.8953882 C96.3279149,28.6116233 96.0322879,28.4612178 95.7015865,28.4511908 C95.3789021,28.4662314 95.0922943,28.6647665 94.9650243,28.9605638 L94.9650243,28.9605638 L91.31829,37.425381 L90.4965472,35.6104889 C90.3492347,35.2856132 90.0165291,35.0840699 89.6567661,35.1171591 C89.3020137,35.1462375 89.0033803,35.3969132 88.9121869,35.7418429 L88.9121869,35.7418429 L85.1001019,50.1837715 L83.6299839,36.5419998 C92.2011625,26.5921798 104.873038,20.2741494 119,20.2741494 L119,20.2741494 Z M72.9754868,31.5559598 L75.8886654,40.1290688 C68.8948322,44.3133476 60.7245038,46.7258506 52,46.7258506 L52,46.7258506 L52,36.8021009 L69.9901552,36.8021009 C70.3188524,36.8021009 70.6164836,36.6125901 70.7547769,36.31579 L70.7547769,36.31579 L72.9754868,31.5559598 Z M80.7620012,25.6638776 L81.863337,35.8914462 C80.648761,36.904176 79.386083,37.8607545 78.0722966,38.7481465 L78.0722966,38.7481465 L80.7620012,25.6638776 Z M98.7004468,0 C98.7004468,13.6718528 92.7999324,25.9910595 83.415028,34.5431117 L83.415028,34.5431117 L81.8607315,20.1142183 C81.8156358,19.7001021 81.4769175,19.3822453 81.0620375,19.3621912 C80.6481598,19.3160669 80.2793776,19.6259021 80.1962012,20.0350048 L80.1962012,20.0350048 L76.6697219,37.1862363 L73.8968409,29.0232328 C73.785605,28.6973544 73.4869716,28.4717462 73.1442447,28.4536976 C72.7924987,28.4135895 72.4788335,28.6281679 72.3335253,28.938003 L72.3335253,28.938003 L69.4534169,35.1136496 L52.0004009,35.1136496 L52.0004009,29.8434437 C68.4462808,29.8434437 81.8276614,16.4553558 81.8276614,0 L81.8276614,0 Z" id="pictogram"></path>
            <path d="M116.403449,85 C117.156101,85 117.78781,85.0702006 118.292577,85.2116046 C118.797344,85.3540115 119.398066,85.5946991 120.100742,85.9326648 L120.100742,88.1209169 C119.413059,87.6886819 118.819333,87.3667622 118.321563,87.1581662 C117.823793,86.9485673 117.233066,86.8442693 116.545383,86.8442693 C115.749751,86.8442693 115.14603,87.0067335 114.728223,87.330659 C114.310415,87.6535817 114.101512,88.0797994 114.101512,88.6073066 C114.101512,89.0525788 114.215459,89.4136103 114.444354,89.6904011 C114.673248,89.9681948 114.973109,90.1898281 115.343938,90.3603152 C115.713767,90.5287966 116.24952,90.7273639 116.949197,90.9570201 C117.770818,91.2267908 118.453502,91.5075931 118.99925,91.7974212 C119.544998,92.0882521 119.991792,92.4873926 120.34263,92.9938395 C120.691469,93.5002865 120.866388,94.1461318 120.866388,94.9293696 C120.866388,95.67149 120.701464,96.3504298 120.371617,96.9661891 C120.042768,97.5789398 119.530005,98.0723496 118.838325,98.4444126 C118.143645,98.8154728 117.278045,99 116.242523,99 C115.285965,99 114.484335,98.9167622 113.838633,98.7482808 C113.192931,98.5808023 112.506249,98.3070201 111.778585,97.9269341 L111.778585,95.6995702 C112.304342,96.1318052 112.946046,96.4797994 113.706694,96.7415473 C114.468343,97.0053009 115.265974,97.1376791 116.100589,97.1376791 C116.922209,97.1376791 117.540924,96.9691977 117.958731,96.6312321 C118.376538,96.2932665 118.585441,95.812894 118.585441,95.1921203 C118.585441,94.7729226 118.463498,94.4299427 118.222609,94.1591691 C117.978722,93.8883954 117.676861,93.6667622 117.313029,93.489255 C116.949197,93.3147564 116.437433,93.1061605 115.777738,92.8614613 L115.333943,92.7 C114.593285,92.4422636 113.983566,92.1805158 113.504787,91.9097421 C113.028008,91.6399713 112.627193,91.2538682 112.304342,90.7544413 C111.98249,90.2550143 111.818566,89.6131805 111.818566,88.8299427 C111.818566,88.1820917 111.98249,87.5673352 112.304342,86.9856734 C112.627193,86.4060172 113.13196,85.9296562 113.818643,85.5565903 C114.506325,85.1855301 115.366928,85 116.403449,85 Z M165.537061,85 C166.290713,85 166.921422,85.0702006 167.426188,85.2116046 C167.930955,85.3540115 168.531678,85.5946991 169.234354,85.9326648 L169.234354,88.1209169 C168.546671,87.6886819 167.952945,87.3667622 167.455175,87.1581662 C166.957405,86.9485673 166.366678,86.8442693 165.678995,86.8442693 C164.883363,86.8442693 164.279641,87.0067335 163.861834,87.330659 C163.444027,87.6535817 163.235124,88.0797994 163.235124,88.6073066 C163.235124,89.0525788 163.349071,89.4136103 163.577965,89.6904011 C163.80686,89.9681948 164.106721,90.1898281 164.47755,90.3603152 C164.847379,90.5287966 165.383132,90.7273639 166.082809,90.9570201 C166.904429,91.2267908 167.587114,91.5075931 168.132862,91.7974212 C168.67861,92.0882521 169.125404,92.4873926 169.476242,92.9938395 C169.825081,93.5002865 170,94.1461318 170,94.9293696 C170,95.67149 169.835076,96.3504298 169.505228,96.9661891 C169.17638,97.5789398 168.663617,98.0723496 167.971936,98.4444126 C167.277257,98.8154728 166.411657,99 165.376135,99 C164.419577,99 163.617947,98.9167622 162.972245,98.7482808 C162.326543,98.5808023 161.63986,98.3070201 160.912196,97.9269341 L160.912196,95.6995702 C161.437954,96.1318052 162.079657,96.4797994 162.840306,96.7415473 C163.601954,97.0053009 164.399586,97.1376791 165.234201,97.1376791 C166.055821,97.1376791 166.674536,96.9691977 167.092343,96.6312321 C167.51015,96.2932665 167.719053,95.812894 167.719053,95.1921203 C167.719053,94.7729226 167.59711,94.4299427 167.356221,94.1591691 C167.112333,93.8883954 166.810473,93.6667622 166.446641,93.489255 C166.082809,93.3147564 165.571045,93.1061605 164.91135,92.8614613 L164.467555,92.7 C163.726897,92.4422636 163.117178,92.1805158 162.638399,91.9097421 C162.161619,91.6399713 161.760805,91.2538682 161.437954,90.7544413 C161.116102,90.2550143 160.952178,89.6131805 160.952178,88.8299427 C160.952178,88.1820917 161.116102,87.5673352 161.437954,86.9856734 C161.760805,86.4060172 162.265571,85.9296562 162.952254,85.5565903 C163.639937,85.1855301 164.500539,85 165.537061,85 Z M2.32192782,85.2433954 L6.56296945,91.524341 L10.9049645,85.2433954 L13.1869108,85.2433954 L13.1869108,98.7580086 L10.9649368,98.7580086 L10.9649368,88.4435387 L6.46101653,94.6853725 L2.16000259,88.4846562 L2.16000259,98.7580086 L6.21724894e-15,98.7580086 L6.21724894e-15,85.2433954 L2.32192782,85.2433954 Z M41.3583022,85.2433954 L41.3583022,87.1277794 L34.7743424,87.1277794 L34.7743424,91.0379513 L40.5096941,91.0379513 L40.5096941,92.9423926 L34.7553512,92.9423926 L34.7553512,96.8736246 L41.3583022,96.8736246 L41.3583022,98.7580086 L32.5343768,98.7580086 L32.5343768,85.2433954 L41.3583022,85.2433954 Z M65.2490703,85.2430946 C69.557081,85.2430946 71.7120859,87.4925215 71.7120859,91.9903725 C71.7120859,96.5022636 69.557081,98.7577077 65.2490703,98.7577077 L60.524252,98.7577077 L60.524252,85.2430946 L65.2490703,85.2430946 Z M92.7757594,85.2432951 L92.7757594,98.7579083 L90.5337947,98.7579083 L90.5337947,85.2432951 L92.7757594,85.2432951 Z M141.909071,85.2432951 L141.909071,98.7579083 L139.667107,98.7579083 L139.667107,85.2432951 L141.909071,85.2432951 Z M65.0271727,87.1064183 L62.7452265,87.1064183 L62.7452265,96.8733238 L65.0271727,96.8733238 C66.5354763,96.8733238 67.6449639,96.4822063 68.3596339,95.6999713 C69.0733044,94.9157307 69.4301396,93.6791977 69.4301396,91.9903725 C69.4301396,90.3025501 69.0733044,89.0660172 68.3596339,88.2827794 C67.6449639,87.4995415 66.5354763,87.1064183 65.0271727,87.1064183 Z" id="text"></path>
        </g>
    </g>
</svg>