<?xml version="1.0" encoding="UTF-8"?>
<svg width="198px" height="52px" viewBox="0 0 198 52" version="1.1" xmlns="http://www.w3.org/2000/svg" xmlns:xlink="http://www.w3.org/1999/xlink">
    <!-- Generator: sketchtool 60.1 (101010) - https://sketch.com -->
    <title>3CA67639-1189-41F1-871D-1431CDC14EF3</title>
    <desc>Created with sketchtool.</desc>
    <g id="Asset-Artboard-Page" stroke="none" stroke-width="1" fill="none" fill-rule="evenodd">
        <g id="logo_horizontal-logo_horizontal_white" fill="#FFFFFF">
            <path d="M34.113919,24.4414649 L36.241907,28.3918351 C36.3379065,28.5728008 36.5132524,28.6949557 36.7118985,28.726164 L36.8129038,28.7340404 L51.9708184,28.7340404 L51.9708184,29.0062037 C39.4265991,29.0062037 29.1973629,39.1161206 28.9940326,51.6203588 L28.9909478,52 L15.9910211,52 C15.9910211,43.8827888 18.6966964,36.3905631 23.2437643,30.3629137 L23.5639784,29.9447669 L24.9359707,42.6804082 C24.9699705,42.9925956 25.2209691,43.2357414 25.5329673,43.2597559 C25.5499672,43.2607565 25.5659671,43.2607565 25.582967,43.2607565 C25.84341,43.2607565 26.0777791,43.1057993 26.1793203,42.8696741 L26.2109635,42.7774665 L29.5789445,30.0168101 L30.0649418,31.0894537 C30.1576913,31.2943266 30.3461433,31.4340823 30.5633062,31.4658201 L30.6579384,31.4726836 C30.8880622,31.470057 31.0944516,31.3525178 31.2107849,31.1649775 L31.2549351,31.0804483 L34.113919,24.4414649 Z M51.970318,16 L51.970318,27.4328597 L37.2004013,27.4328597 L34.6204159,22.6409846 C34.5024166,22.4238543 34.2744178,22.3067841 34.0204193,22.3007805 C33.8069919,22.309357 33.6141358,22.4230579 33.5010461,22.5990352 L33.4514225,22.6920152 L30.6434383,29.2139284 L30.0094419,27.8150891 C29.8964425,27.564939 29.640444,27.4098459 29.3634455,27.4348609 C29.1236969,27.4558735 28.9176356,27.6055884 28.8223021,27.8209949 L28.7884488,27.9171503 L25.8524653,39.0448269 L24.7194717,28.5335201 C31.3234345,20.8669202 41.0853794,16 51.970318,16 Z M16.160008,24.3120847 L18.4051203,30.9179931 C13.1842655,34.0401842 7.11404691,35.8824744 0.629059639,35.9945685 L0.000200009998,36 L0.000200009998,28.3544764 L13.859893,28.3544764 C14.0812791,28.3544764 14.2850549,28.242629 14.4035549,28.0611642 L14.4489224,27.9792544 L16.160008,24.3120847 Z M156.611949,20 C157.191234,20 157.677792,20.0561277 158.065643,20.1673625 C158.454492,20.2775768 158.918118,20.4673903 159.458518,20.7337415 L159.458518,22.4522683 C158.930083,22.1124409 158.473436,21.8603767 158.089573,21.6960757 C157.70571,21.5307542 157.250059,21.4501345 156.720627,21.4501345 C156.108441,21.4501345 155.64282,21.5766769 155.320774,21.8318026 C154.998728,22.0859078 154.838203,22.4196122 154.838203,22.8339364 C154.838203,23.1839688 154.925943,23.4676686 155.103418,23.6850357 C155.279895,23.9034233 155.509216,24.0779293 155.795368,24.2116152 C156.080524,24.3442805 156.492304,24.5004175 157.031706,24.6810465 C157.663834,24.8933111 158.190274,25.1137397 158.610031,25.3413118 C159.030785,25.5688839 159.374766,25.8831988 159.643968,26.2801744 C159.914168,26.6781705 160.048769,27.1863809 160.048769,27.8017441 C160.048769,28.3844512 159.922144,28.9181742 159.667897,29.4018926 C159.414648,29.8835699 159.01882,30.2703405 158.486397,30.5642453 C157.950983,30.8550886 157.284956,31 156.487319,31 C155.751498,31 155.133329,30.9346878 154.635803,30.8020225 C154.139274,30.6693571 153.609842,30.4550515 153.050499,30.1570647 L153.050499,28.4058818 C153.453306,28.7457092 153.949835,29.019204 154.534104,29.2253456 C155.120368,29.4325077 155.735545,29.5365989 156.377643,29.5365989 C157.010768,29.5365989 157.487356,29.4039336 157.809402,29.1386028 C158.131449,28.8722516 158.291973,28.4956861 158.291973,28.0078857 C158.291973,27.6782633 158.197254,27.4088505 158.011803,27.196586 C157.824358,26.9843214 157.592046,26.8087949 157.311876,26.6700065 C157.031706,26.5332591 156.637873,26.3679377 156.129379,26.1771036 L155.787392,26.0505613 C155.217081,25.8485017 154.747472,25.6413396 154.378565,25.4290751 C154.012649,25.2168105 153.702567,24.9137211 153.453306,24.521848 C153.205041,24.1289544 153.08041,23.6248261 153.08041,23.0094628 C153.08041,22.5002319 153.205041,22.0175341 153.453306,21.5603488 C153.702567,21.1052046 154.091415,20.73068 154.620847,20.4377957 C155.150279,20.1469524 155.813315,20 156.611949,20 Z M194.452068,20 C195.03235,20 195.517911,20.0561277 195.905763,20.1673625 C196.295608,20.2775768 196.758237,20.4673903 197.298637,20.7337415 L197.298637,22.4522683 C196.770202,22.1124409 196.313555,21.8603767 195.929692,21.6960757 C195.545829,21.5307542 195.090178,21.4501345 194.561744,21.4501345 C193.94856,21.4501345 193.482939,21.5766769 193.16189,21.8318026 C192.839844,22.0859078 192.679319,22.4196122 192.679319,22.8339364 C192.679319,23.1839688 192.766063,23.4676686 192.943537,23.6850357 C193.120014,23.9034233 193.350332,24.0779293 193.635487,24.2116152 C193.920643,24.3442805 194.33342,24.5004175 194.871825,24.6810465 C195.503953,24.8933111 196.030393,25.1137397 196.45015,25.3413118 C196.870904,25.5688839 197.215882,25.8831988 197.485084,26.2801744 C197.754287,26.6781705 197.888888,27.1863809 197.888888,27.8017441 C197.888888,28.3844512 197.762263,28.9181742 197.508017,29.4018926 C197.254767,29.8835699 196.859936,30.2703405 196.326516,30.5642453 C195.791102,30.8550886 195.125075,31 194.327438,31 C193.591617,31 192.974445,30.9346878 192.476919,30.8020225 C191.979393,30.6693571 191.449961,30.4550515 190.890618,30.1570647 L190.890618,28.4058818 C191.293425,28.7457092 191.789954,29.019204 192.37522,29.2253456 C192.961484,29.4325077 193.575664,29.5365989 194.217763,29.5365989 C194.850887,29.5365989 195.327475,29.4039336 195.650519,29.1386028 C195.971568,28.8722516 196.132092,28.4956861 196.132092,28.0078857 C196.132092,27.6782633 196.03837,27.4088505 195.852919,27.196586 C195.664477,26.9843214 195.432165,26.8087949 195.152992,26.6700065 C194.871825,26.5332591 194.477992,26.3679377 193.970495,26.1771036 L193.628508,26.0505613 C193.0572,25.8485017 192.587591,25.6413396 192.219681,25.4290751 C191.852768,25.2168105 191.543683,24.9137211 191.293425,24.521848 C191.046157,24.1289544 190.920529,23.6248261 190.920529,23.0094628 C190.920529,22.5002319 191.046157,22.0175341 191.293425,21.5603488 C191.543683,21.1052046 191.932532,20.73068 192.460966,20.4377957 C192.990398,20.1469524 193.654431,20 194.452068,20 Z M68.7511024,20.1914463 L72.0174273,25.126598 L75.3615219,20.1914463 L77.1193152,20.1914463 L77.1193152,30.8097783 L75.4073861,30.8097783 L75.4073861,22.7069858 L71.9396577,27.6105019 L68.6264716,22.7386214 L68.6264716,30.8097783 L66.9624006,30.8097783 L66.9624006,20.1914463 L68.7511024,20.1914463 Z M98.8154501,20.1914463 L98.8154501,21.6721959 L93.7444708,21.6721959 L93.7444708,24.7439095 L98.1623846,24.7439095 L98.1623846,26.2409871 L93.7305121,26.2409871 L93.7305121,29.3290287 L98.8154501,29.3290287 L98.8154501,30.8097783 L92.0195801,30.8097783 L92.0195801,20.1914463 L98.8154501,20.1914463 Z M117.214551,20.1915484 C120.532722,20.1915484 122.191807,21.9580388 122.191807,25.4930606 C122.191807,29.0372669 120.532722,30.8098803 117.214551,30.8098803 L113.57533,30.8098803 L113.57533,20.1915484 L117.214551,20.1915484 Z M138.413755,20.1913443 L138.413755,30.8096762 L136.687868,30.8096762 L136.687868,20.1913443 L138.413755,20.1913443 Z M176.253669,20.1913443 L176.253669,30.8096762 L174.527781,30.8096762 L174.527781,20.1913443 L176.253669,20.1913443 Z M22.1590075,19.7723987 L23.0080499,27.6530614 C22.2592125,28.2766303 21.4866939,28.872663 20.68947,29.4365486 L20.0869039,29.8533632 L22.1590075,19.7723987 Z M117.044056,21.6549494 L115.286262,21.6549494 L115.286262,29.3291307 L117.044056,29.3291307 C118.205615,29.3291307 119.060084,29.0219594 119.610454,28.4065962 C120.159827,27.791233 120.434014,26.8197143 120.434014,25.4930606 C120.434014,24.1664069 120.159827,23.1948882 119.610454,22.579525 C119.060084,21.9641618 118.205615,21.6549494 117.044056,21.6549494 Z M35.9797974,0 C35.9797974,10.3516247 31.590917,19.6962749 24.5748899,26.2703123 L24.2032091,26.6137465 L23.0061493,15.4971692 C22.9721476,15.1779803 22.7111345,14.9338359 22.3911185,14.9178264 C22.1031042,14.8863077 21.8450613,15.07605 21.7489455,15.3440846 L21.7230852,15.436133 L19.0069495,28.6509518 L16.8698427,22.3612304 C16.7848385,22.1090812 16.554827,21.9359788 16.2898138,21.9219705 C16.053552,21.895705 15.8379631,22.0188247 15.7133924,22.2095508 L15.6657826,22.2951913 L13.4456717,27.054007 L-2.48689958e-14,27.054007 L-2.48689958e-14,22.992604 C12.5449167,22.992604 22.7737414,12.8837521 22.9770634,0.379637774 L22.980148,0 L35.9797974,0 Z" id="Combined-Shape"></path>
        </g>
    </g>
</svg>